<svg xmlns="http://www.w3.org/2000/svg" width="16" height="16" viewBox="0 0 16 16"><defs><style>.a{fill:#07a3a4;}</style></defs><g transform="translate(-2.15)"><path class="a" d="M15.941,2.017A7.834,7.834,0,0,0,10.451,0,8.234,8.234,0,0,0,4.577,2.295,7.545,7.545,0,0,0,2.15,8.007,7.778,7.778,0,0,0,4.458,13.64,8.329,8.329,0,0,0,10.688,16a11.752,11.752,0,0,0,4.633-.963.976.976,0,0,0,.533-1.263h0a.988.988,0,0,0-1.3-.529,9.826,9.826,0,0,1-3.866.842,5.964,5.964,0,0,1-4.653-1.815A6.13,6.13,0,0,1,4.386,8.016,6.036,6.036,0,0,1,6.151,3.587a5.867,5.867,0,0,1,4.33-1.776,5.779,5.779,0,0,1,4,1.459,4.719,4.719,0,0,1,1.63,3.672,4.114,4.114,0,0,1-.747,2.52,2.022,2.022,0,0,1-1.551,1.005c-.29,0-.435-.153-.435-.463a8.518,8.518,0,0,1,.056-.885l.612-4.965H11.936l-.135.486a2.749,2.749,0,0,0-1.765-.653,3.389,3.389,0,0,0-2.6,1.2A4.427,4.427,0,0,0,6.348,8.281a4.442,4.442,0,0,0,.962,2.98,2.933,2.933,0,0,0,2.315,1.133,2.634,2.634,0,0,0,2.068-1.005,2.147,2.147,0,0,0,1.907.963,4.065,4.065,0,0,0,3.2-1.6A5.778,5.778,0,0,0,18.15,6.9,6.365,6.365,0,0,0,15.941,2.017Zm-4.854,7.51a1.637,1.637,0,0,1-1.334.747.961.961,0,0,1-.85-.548,2.628,2.628,0,0,1-.326-1.364,2.676,2.676,0,0,1,.454-1.625,1.36,1.36,0,0,1,1.126-.62A1.411,1.411,0,0,1,11.2,6.58a1.692,1.692,0,0,1,.454,1.237A2.808,2.808,0,0,1,11.087,9.528Z"/></g></svg>