<svg xmlns="http://www.w3.org/2000/svg" width="16" height="16" viewBox="0 0 16 16"><defs><style>.a{fill:#07a3a4;}</style></defs><g transform="translate(0)"><path class="a" d="M64.5,237.335h1.667a.5.5,0,0,0,.5-.5v-1.667a.5.5,0,0,0-.5-.5H64.5a.5.5,0,0,0-.5.5v1.667A.5.5,0,0,0,64.5,237.335Zm0,0" transform="translate(-62 -227.335)"/><path class="a" d="M64.5,365.335h1.667a.5.5,0,0,0,.5-.5v-1.667a.5.5,0,0,0-.5-.5H64.5a.5.5,0,0,0-.5.5v1.667A.5.5,0,0,0,64.5,365.335Zm0,0" transform="translate(-62 -351.335)"/><path class="a" d="M213.832,237.335H215.5a.5.5,0,0,0,.5-.5v-1.667a.5.5,0,0,0-.5-.5h-1.667a.5.5,0,0,0-.5.5v1.667A.5.5,0,0,0,213.832,237.335Zm0,0" transform="translate(-206.665 -227.335)"/><path class="a" d="M213.832,365.335H215.5a.5.5,0,0,0,.5-.5v-1.667a.5.5,0,0,0-.5-.5h-1.667a.5.5,0,0,0-.5.5v1.667A.5.5,0,0,0,213.832,365.335Zm0,0" transform="translate(-206.665 -351.335)"/><path class="a" d="M213.832,365.335H215.5a.5.5,0,0,0,.5-.5v-1.667a.5.5,0,0,0-.5-.5h-1.667a.5.5,0,0,0-.5.5v1.667A.5.5,0,0,0,213.832,365.335Zm0,0" transform="translate(-202.032 -351.335)"/><path class="a" d="M363.168,237.335h1.667a.5.5,0,0,0,.5-.5v-1.667a.5.5,0,0,0-.5-.5h-1.667a.5.5,0,0,0-.5.5v1.667A.5.5,0,0,0,363.168,237.335Zm0,0" transform="translate(-351.334 -227.335)"/><path class="a" d="M14,2h-.667V.667A.667.667,0,0,0,12.667,0H12a.667.667,0,0,0-.667.667V2H4.667V.667A.667.667,0,0,0,4,0H3.334a.667.667,0,0,0-.667.667V2H2A2,2,0,0,0,0,4V14a2,2,0,0,0,2,2H14a2,2,0,0,0,2-2V4a2,2,0,0,0-2-2Zm.667,12a.668.668,0,0,1-.667.667H2A.668.668,0,0,1,1.334,14V6.693H14.667Zm0,0"/></g></svg>