<svg xmlns="http://www.w3.org/2000/svg" width="16" height="16" viewBox="0 0 16 16"><defs><style>.a{fill:#242a37;}</style></defs><g transform="translate(-0.002 0)"><path class="a" d="M152.166,2.6a1.3,1.3,0,0,0,1.239-.9l-.939-.327,1.764.065h.012a.312.312,0,0,0,.011-.625l-.889-.033a1.3,1.3,0,1,0-1.2,1.814Zm0,0" transform="translate(-146.125)"/><path class="a" d="M63.051,369.605a2.225,2.225,0,1,0,2.234,2.225A2.229,2.229,0,0,0,63.051,369.605Zm0,2.96a.735.735,0,1,1,.738-.735A.737.737,0,0,1,63.051,372.565Zm0,0" transform="translate(-58.907 -358.055)"/><path class="a" d="M305.687,369.605a2.225,2.225,0,1,0,2.234,2.225A2.229,2.229,0,0,0,305.687,369.605Zm0,2.96a.735.735,0,1,1,.738-.735A.737.737,0,0,1,305.687,372.565Zm0,0" transform="translate(-293.93 -358.055)"/><path class="a" d="M13.489,106.5a3.024,3.024,0,0,0-1.732-2.886l-.454-.9-.148-.587h.588a.532.532,0,0,0,.536-.53.521.521,0,0,0-.522-.51H10.486a.521.521,0,0,0-.17.029.628.628,0,0,0-.658-.984l-2.211.532v-.093a.864.864,0,0,0-.865-.862H5a.864.864,0,0,0-.865.862v4.4H3.376a.389.389,0,0,0,.39-.388v-3.668a.389.389,0,0,0-.39-.388H.524a.389.389,0,0,0-.39.388v3.668a.389.389,0,0,0,.39.388H1.531a.293.293,0,0,0-.293.292v1.289a.292.292,0,0,0,.293.292H1.9A4.176,4.176,0,0,0,.01,109.667a.61.61,0,0,0,1.2.195,2.974,2.974,0,0,1,5.9.509H8.784a2.932,2.932,0,0,1,.341-1.38H8.6a.751.751,0,0,0,.264-.31l1.466-3.173a.755.755,0,0,0-.573-1.062l-2.31-.355v-1.074a.76.76,0,0,1-.524-.18L5.7,101.5l1.461.983a.633.633,0,0,0,.278.1c2.516.3,2.38.287,2.451.287a.628.628,0,0,0,.074-1.251l-2.224-.265-1.334-.9,1.234.458,2.354.28a1.073,1.073,0,0,1,.944,1.181,1.052,1.052,0,0,1-.59.815l.9,3.58a.524.524,0,0,0,.506.4,3.2,3.2,0,0,1,3.2,3.182v.01a.522.522,0,0,0,1.044.012c0-.005,0-.011,0-.016a4.233,4.233,0,0,0-2.513-3.86Zm-5.785.338A.292.292,0,0,0,8,106.55V105.7l.535.082-.988,2.138a4.21,4.21,0,0,0-1.153-1.083Zm0,0" transform="translate(0 -96.591)"/></g></svg>