<svg xmlns="http://www.w3.org/2000/svg" width="16" height="16" viewBox="0 0 16 16"><defs><style>.a{fill:#07a3a4;}</style></defs><g transform="translate(-368 -4876)"><path class="a" d="M3.166,0H.452A.452.452,0,0,0,0,.452V3.166a.452.452,0,0,0,.452.452H3.166a.452.452,0,0,0,.452-.452V.452A.452.452,0,0,0,3.166,0Zm0,0" transform="translate(368 4876)"/><path class="a" d="M3.166,170.668H.452A.452.452,0,0,0,0,171.12v2.714a.452.452,0,0,0,.452.452H3.166a.452.452,0,0,0,.452-.452V171.12A.452.452,0,0,0,3.166,170.668Zm0,0" transform="translate(368 4711.523)"/><path class="a" d="M3.166,341.332H.452a.453.453,0,0,0-.452.452V344.5a.453.453,0,0,0,.452.452H3.166a.452.452,0,0,0,.452-.452v-2.714A.453.453,0,0,0,3.166,341.332Zm0,0" transform="translate(368 4547.05)"/><path class="a" d="M3.166,0H.452A.452.452,0,0,0,0,.452V3.166a.452.452,0,0,0,.452.452H3.166a.452.452,0,0,0,.452-.452V.452A.452.452,0,0,0,3.166,0Zm0,0" transform="translate(374.191 4876)"/><path class="a" d="M3.166,170.668H.452A.452.452,0,0,0,0,171.12v2.714a.452.452,0,0,0,.452.452H3.166a.452.452,0,0,0,.452-.452V171.12A.452.452,0,0,0,3.166,170.668Zm0,0" transform="translate(374.191 4711.523)"/><path class="a" d="M3.166,341.332H.452a.453.453,0,0,0-.452.452V344.5a.453.453,0,0,0,.452.452H3.166a.452.452,0,0,0,.452-.452v-2.714A.453.453,0,0,0,3.166,341.332Zm0,0" transform="translate(374.191 4547.05)"/><path class="a" d="M3.166,0H.452A.452.452,0,0,0,0,.452V3.166a.452.452,0,0,0,.452.452H3.166a.452.452,0,0,0,.452-.452V.452A.452.452,0,0,0,3.166,0Zm0,0" transform="translate(380.382 4876)"/><path class="a" d="M3.166,170.668H.452A.452.452,0,0,0,0,171.12v2.714a.452.452,0,0,0,.452.452H3.166a.452.452,0,0,0,.452-.452V171.12A.452.452,0,0,0,3.166,170.668Zm0,0" transform="translate(380.382 4711.523)"/><path class="a" d="M3.166,341.332H.452a.453.453,0,0,0-.452.452V344.5a.453.453,0,0,0,.452.452H3.166a.452.452,0,0,0,.452-.452v-2.714A.453.453,0,0,0,3.166,341.332Zm0,0" transform="translate(380.382 4547.05)"/></g></svg>