<svg xmlns="http://www.w3.org/2000/svg" width="16" height="15.998" viewBox="0 0 16 15.998"><defs><style>.a{fill:#06f;}</style></defs><path class="a" d="M-16442.125-1465a1.882,1.882,0,0,1-1.877-1.884v-9.823a1.882,1.882,0,0,1,1.877-1.884h3.332a.373.373,0,0,1,.373.377.373.373,0,0,1-.373.377h-3.332a1.129,1.129,0,0,0-1.127,1.13v9.823a1.129,1.129,0,0,0,1.127,1.13h10.521a1.129,1.129,0,0,0,1.127-1.13v-3.348a.378.378,0,0,1,.377-.377.377.377,0,0,1,.373.377v3.348a1.88,1.88,0,0,1-1.877,1.884Zm2.84-5.076.576-2.61,2.3,2.3-2.559.621a.269.269,0,0,1-.061.007A.259.259,0,0,1-16439.285-1470.078Zm1.2-3.232,5.813-5.815,2.3,2.3-5.82,5.818Zm6.41-6.413.984-.983a1.023,1.023,0,0,1,1.436,0l1.021,1.025a.786.786,0,0,1,0,1.111l-1.141,1.146Z" transform="translate(16444.002 1480.999)"/></svg>