<svg xmlns="http://www.w3.org/2000/svg" width="16" height="16" viewBox="0 0 16 16"><defs><style>.a{opacity:0.7;}.b{fill:#242a37;}</style></defs><g class="a" transform="translate(0 -82.176)"><g transform="translate(5.425 86.176)"><path class="b" d="M158.991,156.416c-1.421,0-2.575,1.793-2.575,4s1.154,4,2.575,4,2.575-1.793,2.575-4S160.412,156.416,158.991,156.416Zm-.2,2.814c-.32,0-.586.414-.586.91h-.852c.018-1.241.657-2.234,1.438-2.234Z" transform="translate(-156.416 -156.416)"/></g><g transform="translate(0 82.176)"><g transform="translate(0)"><path class="b" d="M15.814,89.348c-.87-1.683-3.978-7.172-7.814-7.172S1.057,87.666.186,89.348A1.93,1.93,0,0,0,.186,91c.87,1.683,3.978,7.172,7.814,7.172s6.943-5.49,7.814-7.172A1.93,1.93,0,0,0,15.814,89.348ZM8,95.969c-2.06,0-3.729-2.593-3.729-5.793S5.94,84.383,8,84.383s3.729,2.593,3.729,5.793S10.06,95.969,8,95.969Z" transform="translate(0 -82.176)"/></g></g></g></svg>