<svg xmlns="http://www.w3.org/2000/svg" width="18" height="32" viewBox="0 0 18 32"><defs><style>.a{fill:#09cacb;}</style></defs><g transform="translate(-22.077)"><path class="a" d="M39.4.007,35.082,0C30.231,0,27.1,3.091,27.1,7.875v3.631H22.756a.666.666,0,0,0-.679.653V17.42a.666.666,0,0,0,.679.652H27.1V31.348a.666.666,0,0,0,.679.652h5.664a.666.666,0,0,0,.679-.652V18.073h5.076a.666.666,0,0,0,.679-.652l0-5.261a.641.641,0,0,0-.2-.461.693.693,0,0,0-.48-.191H34.118V8.428c0-1.479.367-2.23,2.372-2.23H39.4a.666.666,0,0,0,.679-.652V.659A.666.666,0,0,0,39.4.007Z" transform="translate(0)"/></g></svg>