<svg xmlns="http://www.w3.org/2000/svg" width="56" height="56" viewBox="0 0 56 56"><defs><style>.a{fill:#fff;}.b{fill:#09cacb;}</style></defs><g transform="translate(-571 -169)"><circle class="a" cx="28" cy="28" r="28" transform="translate(571 169)"/><g transform="translate(568.923 183)"><path class="b" d="M37.474.006,33.637,0c-4.311,0-7.1,2.7-7.1,6.891v3.177H22.68a.588.588,0,0,0-.6.571v4.6a.588.588,0,0,0,.6.571h3.859V27.429a.588.588,0,0,0,.6.571h5.034a.588.588,0,0,0,.6-.571V15.813h4.512a.588.588,0,0,0,.6-.571l0-4.6a.557.557,0,0,0-.177-.4.621.621,0,0,0-.427-.167H32.78V7.375c0-1.295.326-1.952,2.108-1.952h2.585a.588.588,0,0,0,.6-.571V.577A.588.588,0,0,0,37.474.006Z" transform="translate(0)"/></g></g></svg>