<svg xmlns="http://www.w3.org/2000/svg" width="32" height="27.72" viewBox="0 0 32 27.72"><defs><style>.a{fill:none;}.b,.c{stroke:none;}.c{fill:#ed1a3f;}</style></defs><g class="a" transform="translate(0 -32.952)"><path class="b" d="M32,41.593a8.635,8.635,0,0,0-16-4.513A8.634,8.634,0,1,0,2.966,48.1L15.211,60.345a1.115,1.115,0,0,0,1.577,0L29.034,48.1A8.61,8.61,0,0,0,32,41.593Z"/><path class="c" d="M 8.640510559082031 34.95200347900391 C 4.978919982910156 34.95200347900391 2 37.93132400512695 2 41.59341430664063 C 2 43.50587463378906 2.831350326538086 45.32793426513672 4.280879974365234 46.59241485595703 L 4.332210540771484 46.63719177246094 L 4.380380630493164 46.68537139892578 L 15.99990463256836 58.30539321899414 L 27.61943054199219 46.68537139892578 L 27.66761016845703 46.63718414306641 L 27.71895980834961 46.59239196777344 C 29.1685905456543 45.32786178588867 30 43.50580215454102 30 41.59341430664063 C 30 37.93132400512695 27.02058029174805 34.95200347900391 23.35837936401367 34.95200347900391 C 21.0400505065918 34.95200347900391 18.9261589050293 36.13925170898438 17.7037296295166 38.12789154052734 L 15.99979019165039 40.89985275268555 L 14.2960090637207 38.12779235839844 C 13.07378005981445 36.13921356201172 10.95956993103027 34.95200347900391 8.640510559082031 34.95200347900391 M 8.640510559082031 32.95200347900391 C 11.75687026977539 32.95200347900391 14.47965049743652 34.60707473754883 15.99990081787109 37.08053207397461 C 17.52035140991211 34.60707473754883 20.24195861816406 32.95200347900391 23.35837936401367 32.95200347900391 C 28.13098907470703 32.95200347900391 32 36.82082366943359 32 41.59341430664063 C 32 44.19183349609375 30.84844970703125 46.51650238037109 29.03367042541504 48.09955215454102 L 16.78847122192383 60.34527206420898 C 16.57934951782227 60.55439376831055 16.29573059082031 60.67188262939453 15.99990081787109 60.67188262939453 C 15.70408058166504 60.67188262939453 15.42045974731445 60.55439376831055 15.21133041381836 60.34527206420898 L 2.966140747070313 48.09955215454102 C 1.151420593261719 46.51650238037109 0 44.19183349609375 0 41.59341430664063 C 0 36.82082366943359 3.867910385131836 32.95200347900391 8.640510559082031 32.95200347900391 Z"/></g></svg>