<svg xmlns="http://www.w3.org/2000/svg" width="16" height="16" viewBox="0 0 16 16"><defs><style>.a{fill:#07a3a4;}</style></defs><g transform="translate(-36.001)"><g transform="translate(36.001)"><path class="a" d="M50.982,4.365a.138.138,0,0,0-.145-.115H48.219V3.625C48.219,1.626,46.326,0,44,0s-4.218,1.626-4.218,3.625V4.25H37.164a.138.138,0,0,0-.145.115L36,15.865a.115.115,0,0,0,.038.094.157.157,0,0,0,.107.04H51.855a.157.157,0,0,0,.107-.04A.115.115,0,0,0,52,15.866Zm-10.036-.74a3.09,3.09,0,0,1,6.109,0V4.25H40.946ZM40.364,7.75A1.365,1.365,0,0,1,38.91,6.5a1.189,1.189,0,0,1,.873-1.146V6.5a.589.589,0,0,0,1.164,0V5.355A1.192,1.192,0,0,1,41.819,6.5,1.365,1.365,0,0,1,40.364,7.75Zm7.273,0A1.365,1.365,0,0,1,46.182,6.5a1.189,1.189,0,0,1,.873-1.146V6.5a.589.589,0,0,0,1.164,0V5.355A1.192,1.192,0,0,1,49.091,6.5,1.365,1.365,0,0,1,47.637,7.75Z" transform="translate(-36.001)"/></g></g></svg>