<svg xmlns="http://www.w3.org/2000/svg" width="17.017" height="17.016" viewBox="0 0 17.017 17.016"><defs><style>.a{fill:none;}.a,.b{stroke:#07a3a4;}.b{fill:#07a3a4;}</style></defs><g transform="translate(-499.491 -556.5)"><g transform="translate(500 556.548)"><path class="a" d="M8.378.716l2.035,5.051,5.21.469a.436.436,0,0,1,.234.754l-3.952,3.591,1.184,5.341a.415.415,0,0,1-.612.466L8,13.557,3.523,16.388a.415.415,0,0,1-.612-.466l1.184-5.341L.142,6.99a.435.435,0,0,1,.234-.754l5.21-.469L7.622.716a.4.4,0,0,1,.756,0Z" transform="translate(0)"/></g><line class="a" y2="13" transform="translate(508 557.5)"/><path class="b" d="M10927.412,2038.964h0l-.233.724-1.462,4.546h-5.317v.367l4.079,3.162-1.146,5.912,1.146-1.6.733.688.871-.687,1.329-1.054.275-.642-.509-3.162.783-7.516" transform="translate(-10420 -1481)"/></g></svg>