<svg xmlns="http://www.w3.org/2000/svg" width="40" height="40" viewBox="0 0 40 40"><defs><style>.a{fill:#242a37;}</style></defs><g transform="translate(0 -33)"><g transform="translate(0 33)"><path class="a" d="M29.375,33c-4.739,0-7.781,3.768-9.375,7.161C18.406,36.768,15.364,33,10.625,33,4.612,33,0,38.6,0,46.029a15.783,15.783,0,0,0,.96,5.447H9.9l2.02-4.638a1.145,1.145,0,0,1,2.1,0l3.639,8.356,1.3-2.974a1.145,1.145,0,0,1,2.1,0l1.3,2.974,3.639-8.356a1.145,1.145,0,0,1,2.1,0l2.02,4.637h8.94A15.783,15.783,0,0,0,40,46.029C40,38.6,35.388,33,29.375,33Z" transform="translate(0 -33)"/></g><g transform="translate(2.19 50.448)"><path class="a" d="M55.222,231.263a1.167,1.167,0,0,1-1.048-.744l-1.3-2.974L49.239,235.9a1.111,1.111,0,0,1-2.1,0l-1.3-2.974-1.3,2.974a1.145,1.145,0,0,1-2.1,0l-3.639-8.355-1.3,2.974a1.167,1.167,0,0,1-1.048.744H28.037c2.412,4.356,6.756,8.494,12.189,13.759,1.525,1.478,3.148,3.051,4.852,4.747a1.062,1.062,0,0,0,1.536,0c1.7-1.7,3.327-3.269,4.852-4.747,5.434-5.265,9.777-9.4,12.189-13.759Z" transform="translate(-28.037 -227.545)"/></g></g></svg>