<svg xmlns="http://www.w3.org/2000/svg" width="16" height="16" viewBox="0 0 16 16"><defs><style>.a{fill:#07a3a4;}</style></defs><g transform="translate(0 -33)"><g transform="translate(0 33)"><path class="a" d="M11.75,33c-1.9,0-3.112,1.507-3.75,2.865C7.362,34.507,6.146,33,4.25,33,1.845,33,0,35.24,0,38.211A6.313,6.313,0,0,0,.384,40.39H3.96l.808-1.855a.458.458,0,0,1,.839,0l1.456,3.342.518-1.19a.458.458,0,0,1,.839,0l.518,1.19,1.456-3.342a.458.458,0,0,1,.839,0l.808,1.855h3.576A6.313,6.313,0,0,0,16,38.211C16,35.24,14.155,33,11.75,33Z" transform="translate(0 -33)"/></g><g transform="translate(0.876 39.979)"><path class="a" d="M38.911,229.032a.467.467,0,0,1-.419-.3l-.518-1.19-1.456,3.342a.444.444,0,0,1-.839,0l-.518-1.19-.518,1.19a.458.458,0,0,1-.839,0l-1.456-3.342-.518,1.19a.467.467,0,0,1-.419.3H28.037c.965,1.743,2.7,3.4,4.876,5.5.61.591,1.259,1.22,1.941,1.9a.425.425,0,0,0,.614,0c.682-.678,1.331-1.307,1.941-1.9,2.173-2.106,3.911-3.761,4.876-5.5Z" transform="translate(-28.037 -227.545)"/></g></g></svg>