<svg xmlns="http://www.w3.org/2000/svg" width="24" height="24" viewBox="0 0 24 24"><defs><style>.a{fill:#07a3a4;}</style></defs><g transform="translate(0.001 -46.994)"><g transform="translate(-0.001 46.994)"><path class="a" d="M74.273,120.939l-8.559,8.867a.315.315,0,0,1-.008.056.317.317,0,0,0-.008.056V138.9a1.31,1.31,0,0,0,.283.842.837.837,0,0,0,.67.356h5.716v-7.183h3.811v7.183h5.716a.836.836,0,0,0,.67-.356,1.31,1.31,0,0,0,.283-.842v-8.979a.324.324,0,0,0-.015-.112Z" transform="translate(-62.272 -116.094)"/><path class="a" d="M23.834,58.685l-3.26-3.4V47.649a.669.669,0,0,0-.134-.43.418.418,0,0,0-.342-.168H17.239a.419.419,0,0,0-.343.168.671.671,0,0,0-.134.43V51.3L13.131,47.48a1.559,1.559,0,0,0-2.262,0L.165,58.685a.6.6,0,0,0-.164.4.718.718,0,0,0,.1.44l.923,1.384a.486.486,0,0,0,.313.206.475.475,0,0,0,.357-.131L12,50.193,22.3,60.986a.4.4,0,0,0,.313.13h.045a.486.486,0,0,0,.313-.206l.923-1.384a.718.718,0,0,0,.1-.44A.6.6,0,0,0,23.834,58.685Z" transform="translate(0.001 -46.994)"/></g></g></svg>