<svg xmlns="http://www.w3.org/2000/svg" width="32" height="32" viewBox="0 0 32 32"><defs><style>.a{fill:#09cacb;}</style></defs><path class="a" d="M23.169,0H8.831A8.841,8.841,0,0,0,0,8.831V23.169A8.841,8.841,0,0,0,8.831,32H23.169A8.841,8.841,0,0,0,32,23.169V8.831A8.841,8.841,0,0,0,23.169,0Zm5.992,23.169a6,6,0,0,1-5.992,5.992H8.831a6,6,0,0,1-5.991-5.992V8.831A6,6,0,0,1,8.831,2.839H23.169a6,6,0,0,1,5.992,5.992V23.169Z"/><path class="a" d="M49.214,40.97a8.245,8.245,0,1,0,8.246,8.246A8.255,8.255,0,0,0,49.214,40.97Zm0,13.651a5.406,5.406,0,1,1,5.406-5.406A5.412,5.412,0,0,1,49.214,54.621Z" transform="translate(-33.214 -33.215)"/><path class="a" d="M121,28.251a2.081,2.081,0,1,0,1.473.609A2.09,2.09,0,0,0,121,28.251Z" transform="translate(-96.412 -22.904)"/></svg>