<svg xmlns="http://www.w3.org/2000/svg" width="56" height="56" viewBox="0 0 56 56"><defs><style>.a{fill:#fff;}.b{fill:#09cacb;}</style></defs><g transform="translate(-731 -169)"><circle class="a" cx="28" cy="28" r="28" transform="translate(731 169)"/><g transform="translate(745 183)"><path class="b" d="M20.273,0H7.727A7.736,7.736,0,0,0,0,7.727V20.273A7.736,7.736,0,0,0,7.727,28H20.273A7.736,7.736,0,0,0,28,20.273V7.727A7.736,7.736,0,0,0,20.273,0Zm5.243,20.273a5.249,5.249,0,0,1-5.243,5.243H7.727a5.248,5.248,0,0,1-5.243-5.243V7.727A5.249,5.249,0,0,1,7.727,2.484H20.273a5.249,5.249,0,0,1,5.243,5.243V20.273Z"/><path class="b" d="M48.183,40.97A7.215,7.215,0,1,0,55.4,48.185,7.223,7.223,0,0,0,48.183,40.97Zm0,11.945a4.73,4.73,0,1,1,4.731-4.73A4.736,4.736,0,0,1,48.183,52.915Z" transform="translate(-34.183 -34.185)"/><path class="b" d="M120.743,28.251a1.821,1.821,0,1,0,1.289.533A1.829,1.829,0,0,0,120.743,28.251Z" transform="translate(-99.225 -23.572)"/></g></g></svg>