<svg xmlns="http://www.w3.org/2000/svg" width="16" height="16" viewBox="0 0 16 16"><defs><style>.a{fill:#242a37;}</style></defs><g transform="translate(0 -1)"><path class="a" d="M0,1.143v9.143a1.079,1.079,0,0,0,1,1.143H4V0H1A1.079,1.079,0,0,0,0,1.143Z" transform="translate(0 5.571)"/><path class="a" d="M9.153,5.744H6.2a.489.489,0,0,1-.431-.282A.632.632,0,0,1,5.762,4.9L6.8,2.752a1.917,1.917,0,0,0,.065-1.514A1.56,1.56,0,0,0,5.855.257L5.121.047a.461.461,0,0,0-.493.172L.641,5.281A3.1,3.1,0,0,0,0,7.193v5.98A2.7,2.7,0,0,0,2.5,16.03H7.474a2.584,2.584,0,0,0,2.411-2.1l1.067-5.6A2.417,2.417,0,0,0,11,7.854a1.994,1.994,0,0,0-1.847-2.11Z" transform="translate(5 0.97)"/></g></svg>