<svg xmlns="http://www.w3.org/2000/svg" width="16.01" height="16" viewBox="0 0 16.01 16"><defs><style>.a{fill:#07a3a4;}</style></defs><g transform="translate(0 -0.864)"><path class="a" d="M7.714,13.541a.295.295,0,0,1,0-.59H9.053l3.714-3.833H7.714a.295.295,0,0,1,0-.59h5.143a.284.284,0,0,1,.271.218,1.669,1.669,0,0,1,2.3-.1V4.454A3.54,3.54,0,0,0,11.95.864H3.479A3.54,3.54,0,0,0,0,4.454v8.741a3.54,3.54,0,0,0,3.479,3.59H7.686l.857-3.243H7.714Zm0-9.139h5.143a.295.295,0,0,1,0,.59H7.714a.295.295,0,0,1,0-.59Zm-1.8,7.562L3.952,14.322a.279.279,0,0,1-.389.044L2.257,13.356a.3.3,0,0,1-.057-.412.28.28,0,0,1,.4-.059l1.092.845,1.785-2.148a.279.279,0,0,1,.4-.032A.3.3,0,0,1,5.911,11.964Zm0-4.422L3.952,9.9a.279.279,0,0,1-.389.044L2.257,8.934A.3.3,0,0,1,2.2,8.521a.28.28,0,0,1,.4-.059l1.092.845L5.477,7.159a.279.279,0,0,1,.4-.032A.3.3,0,0,1,5.911,7.542Zm0-4.127L3.952,5.773a.279.279,0,0,1-.389.044L2.257,4.806A.3.3,0,0,1,2.2,4.394a.28.28,0,0,1,.4-.059l1.092.845L5.477,3.031A.279.279,0,0,1,5.88,3,.3.3,0,0,1,5.911,3.414Z"/><path class="a" d="M4.671,2.58,6.2,4.163l-3.867,4L.8,6.585ZM7.357,2.2l-.681-.706a.66.66,0,0,0-.955,0l-.653.676L6.6,3.751l.761-.788A.553.553,0,0,0,7.357,2.2ZM0,8.809a.177.177,0,0,0,.21.214l1.7-.427L.391,7.014Z" transform="translate(8.5 7.835)"/></g></svg>