<svg xmlns="http://www.w3.org/2000/svg" width="12" height="16" viewBox="0 0 12 16"><defs><style>.a{fill:#07a3a4;}</style></defs><g transform="translate(-70.573)"><g transform="translate(70.573)"><path class="a" d="M76.573,0a5.907,5.907,0,0,0-6,5.795c0,3.965,5.369,9.786,5.6,10.032a.553.553,0,0,0,.8,0c.229-.246,5.6-6.067,5.6-10.032A5.907,5.907,0,0,0,76.573,0Zm0,8.71a2.972,2.972,0,0,1-3.019-2.915,3.021,3.021,0,0,1,6.037,0A2.972,2.972,0,0,1,76.573,8.71Z" transform="translate(-70.573)"/></g></g></svg>