<svg xmlns="http://www.w3.org/2000/svg" xmlns:xlink="http://www.w3.org/1999/xlink" width="147" height="48" viewBox="0 0 147 48"><defs><style>.a{fill:url(#a);}.b{fill:url(#b);}.c{fill:url(#c);}.d{fill:url(#d);}.e{fill:url(#e);}.f{fill:url(#f);}.g{fill:#fff;}</style><linearGradient id="a" x1="1.115" y1="0.159" x2="0.085" y2="0.852" gradientUnits="objectBoundingBox"><stop offset="0" stop-color="#07a3a4"/><stop offset="0.13" stop-color="#08b3b4"/><stop offset="0.31" stop-color="#08c0c1"/><stop offset="0.53" stop-color="#09c8c9"/><stop offset="1" stop-color="#09cacb"/></linearGradient><linearGradient id="b" x1="0.99" y1="0.017" x2="0.011" y2="0.815" xlink:href="#a"/><linearGradient id="c" x1="1.175" y1="0.112" x2="-0.361" y2="0.811" xlink:href="#a"/><linearGradient id="d" x1="0.969" y1="0.176" x2="0.094" y2="0.872" xlink:href="#a"/><linearGradient id="e" x1="1.002" y1="0.014" x2="-0.156" y2="0.743" xlink:href="#a"/><linearGradient id="f" x1="0.106" y1="0.203" x2="0.905" y2="0.805" gradientUnits="objectBoundingBox"><stop offset="0" stop-color="#07a3a4"/><stop offset="0.03" stop-color="#07a5a6"/><stop offset="0.36" stop-color="#08babb"/><stop offset="0.68" stop-color="#09c6c7"/><stop offset="1" stop-color="#09cacb"/></linearGradient></defs><path class="a" d="M212.11,76.744V72.509q0-4.32,2.357-6.587t7.029-2.259a10.827,10.827,0,0,1,3.706.565,2.2,2.2,0,0,1,1.012.565,1.73,1.73,0,0,1,.252,1.05v.426a1.5,1.5,0,0,1-.252,1.048c-.167.155-.506.15-1.012-.02a10.683,10.683,0,0,0-3.621-.6q-3.409,0-4.862,1.367t-1.453,4.492v4.151q0,3.208,1.515,4.535t5.054,1.324A11.034,11.034,0,0,0,225.623,82c.478-.169.806-.169.989,0a1.485,1.485,0,0,1,.283,1.07V83.5a1.526,1.526,0,0,1-.283,1.005,2.163,2.163,0,0,1-1.074.534,12.27,12.27,0,0,1-3.915.565q-4.842,0-7.179-2.16T212.11,76.744Z" transform="translate(-156.951 -50.344)"/><path class="b" d="M278.149,66.512V78.653a4.9,4.9,0,0,0,1.283,3.806q1.283,1.155,4.356,1.155,3.109,0,4.358-1.129a4.954,4.954,0,0,0,1.244-3.829V66.512a1.106,1.106,0,0,1,1.357-1.372h.464a1.487,1.487,0,0,1,1.094.282,1.7,1.7,0,0,1,.254,1.09V78.653q0,4.018-2.128,6.008T283.8,86.652q-8.8,0-8.8-8V66.512a1.106,1.106,0,0,1,1.357-1.372h.464a1.487,1.487,0,0,1,1.094.282A1.7,1.7,0,0,1,278.149,66.512Z" transform="translate(-202.065 -51.406)"/><path class="c" d="M356.9,71.18V83.767a1.681,1.681,0,0,1-.254,1.112,1.6,1.6,0,0,1-1.094.254h-.464a1.625,1.625,0,0,1-1.071-.254,1.578,1.578,0,0,1-.283-1.112V71.01q0-7.4,7.2-7.4c.223,0,.673.028,1.345.085a1.508,1.508,0,0,1,1.032.387,1.913,1.913,0,0,1,.232,1.11v.429c0,.542-.085.884-.252,1.028s-.52.169-1.051.085a5.048,5.048,0,0,1-.565-.023c-.206-.023-.37-.028-.483-.042a2.141,2.141,0,0,0-.252-.02A3.954,3.954,0,0,0,357.8,67.7,5.386,5.386,0,0,0,356.9,71.18Z" transform="translate(-258.543 -50.308)"/><path class="d" d="M415.8,72.144a15.986,15.986,0,0,1-.124,2.31,1.675,1.675,0,0,1-.379,1.07,1.765,1.765,0,0,1-1.131.257H401.45v1.282q0,2.911,1.538,4.17t5.031,1.262a20.588,20.588,0,0,0,5.735-.813c.5-.141.848-.127,1.051.045s.283.528.283,1.067v.387a1.617,1.617,0,0,1-.232.983,2.288,2.288,0,0,1-1.074.565,19.052,19.052,0,0,1-5.766.813q-5.054,0-7.388-2.118T398.29,76.6V72.615q0-9.035,8.884-9.035,4.209,0,6.419,2.183T415.8,72.144Zm-14.356-.472v1.412h11.368V71.672q0-5.218-5.684-5.218T401.447,71.672Z" transform="translate(-290.508 -50.287)"/><path class="e" d="M473.021,66.515l3.957,14.759a4.074,4.074,0,0,0,.9,1.883,2.429,2.429,0,0,0,1.662.469,2.051,2.051,0,0,0,1.5-.511,3.984,3.984,0,0,0,.862-1.841l3.5-14.759a1.868,1.868,0,0,1,.546-1.112,2,2,0,0,1,1.221-.3h.379c.591,0,.955.093,1.1.282s.138.565,0,1.129L483.8,86.193q-2.148,8.64-8.462,9.069a1.383,1.383,0,0,1-1.032-.169,1.8,1.8,0,0,1-.483-1.028l-.085-.384c-.113-.486-.093-.808.062-.963a1.823,1.823,0,0,1,1.032-.322,5.372,5.372,0,0,0,3.559-1.753,12.418,12.418,0,0,0,2.261-4.7,4.277,4.277,0,0,1-2.106.469,3.766,3.766,0,0,1-2.968-1.112,10.01,10.01,0,0,1-1.747-3.891l-4.008-14.888c-.141-.565-.141-.946,0-1.129s.489-.282,1.051-.282h.336a2.082,2.082,0,0,1,1.221.282A1.952,1.952,0,0,1,473.021,66.515Z" transform="translate(-341.745 -51.376)"/><ellipse class="f" cx="24.025" cy="24" rx="24.025" ry="24"/><path class="g" d="M61.5,76.887a4.338,4.338,0,0,1-.54-.023A5.963,5.963,0,0,1,55.673,70.9V67.875a1.13,1.13,0,0,0-1.131-1.129H51.355A5.822,5.822,0,0,1,45.56,60.4a5.947,5.947,0,0,1,5.97-5.274h2.335a1.8,1.8,0,0,0,1.8-1.8V50.815a5.82,5.82,0,0,1,6.348-5.785A5.951,5.951,0,0,1,67.3,51v2.7a1.438,1.438,0,0,0,1.436,1.434h2.708A5.944,5.944,0,0,1,77.409,60.4a5.756,5.756,0,0,1-1.5,4.47,5.834,5.834,0,0,1-4.291,1.892H68.164a.864.864,0,0,0-.865.864v3.448A5.825,5.825,0,0,1,65.4,75.366,5.761,5.761,0,0,1,61.5,76.887ZM51.53,56.058a5.031,5.031,0,0,0-5.062,4.447,4.865,4.865,0,0,0,1.266,3.752,4.929,4.929,0,0,0,3.621,1.6h3.188a2.037,2.037,0,0,1,2.035,2.033V70.9a5.035,5.035,0,0,0,4.455,5.063,4.913,4.913,0,0,0,5.356-4.882V67.629a1.777,1.777,0,0,1,1.775-1.776h3.454a4.918,4.918,0,0,0,3.618-1.6A4.853,4.853,0,0,0,76.5,60.505a5.029,5.029,0,0,0-5.059-4.447H68.735a2.348,2.348,0,0,1-2.346-2.344v-2.7a5.035,5.035,0,0,0-4.455-5.063,4.913,4.913,0,0,0-5.37,4.879v2.513a2.715,2.715,0,0,1-2.713,2.711ZM61.5,74.612a3.543,3.543,0,0,1-3.547-3.535V66.311a1.822,1.822,0,0,0-1.823-1.824H51.482a3.611,3.611,0,0,1-3.641-3.106,3.536,3.536,0,0,1,3.513-3.953h4.771a1.822,1.822,0,0,0,1.82-1.821V50.97a3.612,3.612,0,0,1,3.109-3.642,3.54,3.54,0,0,1,3.98,3.507V55.6a1.825,1.825,0,0,0,1.809,1.824h4.774a3.536,3.536,0,0,1,3.51,3.953,3.611,3.611,0,0,1-3.643,3.106H66.844a1.825,1.825,0,0,0-1.823,1.821v4.633a3.612,3.612,0,0,1-3.109,3.642,3.785,3.785,0,0,1-.415.028ZM51.355,58.334a2.641,2.641,0,0,0-1.979.884,2.6,2.6,0,0,0-.639,2.064,2.7,2.7,0,0,0,2.736,2.3h4.652a2.735,2.735,0,0,1,2.733,2.73v4.766a2.63,2.63,0,0,0,2.957,2.606,2.7,2.7,0,0,0,2.3-2.739V66.311a2.735,2.735,0,0,1,2.733-2.73h4.641a2.7,2.7,0,0,0,2.739-2.3,2.585,2.585,0,0,0-.639-2.061,2.627,2.627,0,0,0-1.979-.887H66.844A2.735,2.735,0,0,1,64.11,55.6V50.835a2.628,2.628,0,0,0-2.957-2.6,2.7,2.7,0,0,0-2.3,2.739V55.6a2.735,2.735,0,0,1-2.73,2.73Z" transform="translate(-37.46 -36.957)"/></svg>