<svg xmlns="http://www.w3.org/2000/svg" width="40" height="38" viewBox="0 0 40 38"><defs><style>.a{fill:#242a37;}</style></defs><g transform="translate(-0.001)"><path class="a" d="M36.911,2.936a10.946,10.946,0,0,0-14.921,0l-9.449,8.976L3.091,20.89a9.671,9.671,0,0,0,0,14.174A10.765,10.765,0,0,0,10.551,38a10.766,10.766,0,0,0,7.46-2.936l9.45-8.976,9.45-8.977a9.672,9.672,0,0,0,0-14.174ZM16.023,33.174a8.027,8.027,0,0,1-10.942,0,7.093,7.093,0,0,1,0-10.394l8.455-8.032,10.942,10.4Zm18.9-17.953-8.455,8.032-10.942-10.4,8.455-8.031a8.026,8.026,0,0,1,10.942,0,7.094,7.094,0,0,1,0,10.395Zm0,0"/><path class="a" d="M319.414,62.649a1.43,1.43,0,0,1-1.162-.581,3.636,3.636,0,0,0-5.393-.479,1.459,1.459,0,0,1-1.989,0,1.289,1.289,0,0,1,0-1.89,6.544,6.544,0,0,1,9.7.858,1.3,1.3,0,0,1-.366,1.858,1.453,1.453,0,0,1-.793.233Zm0,0" transform="translate(-286.201 -53.637)"/></g></svg>