<svg xmlns="http://www.w3.org/2000/svg" width="16" height="16" viewBox="0 0 16 16"><defs><style>.a{fill:#07a3a4;}</style></defs><g transform="translate(-0.006)"><g transform="translate(0.006)"><path class="a" d="M12.17,55.186a1.121,1.121,0,0,0-1.695,0c-.4.393-.792.786-1.182,1.185a.234.234,0,0,1-.326.06c-.256-.14-.529-.253-.776-.406a12.292,12.292,0,0,1-2.963-2.7,7.02,7.02,0,0,1-1.062-1.7.244.244,0,0,1,.06-.313c.4-.383.782-.776,1.172-1.169a1.125,1.125,0,0,0,0-1.735c-.31-.313-.619-.619-.929-.932s-.636-.643-.959-.959a1.128,1.128,0,0,0-1.695,0c-.4.393-.782.8-1.189,1.182a1.929,1.929,0,0,0-.606,1.3A5.515,5.515,0,0,0,.444,51.38,14.425,14.425,0,0,0,3,55.645,15.844,15.844,0,0,0,8.251,59.75a7.589,7.589,0,0,0,2.907.846,2.13,2.13,0,0,0,1.828-.7c.34-.38.723-.726,1.082-1.089a1.133,1.133,0,0,0,.007-1.725Q13.126,56.133,12.17,55.186Z" transform="translate(-0.006 -44.601)"/><path class="a" d="M241.463,100.734l1.229-.21A5.515,5.515,0,0,0,238.027,96l-.173,1.235a4.262,4.262,0,0,1,3.609,3.5Z" transform="translate(-229.935 -92.804)"/><path class="a" d="M248.121,2.59A9.059,9.059,0,0,0,242.927,0l-.173,1.235a7.9,7.9,0,0,1,6.689,6.482l1.229-.21A9.125,9.125,0,0,0,248.121,2.59Z" transform="translate(-234.672)"/></g></g></svg>