<svg xmlns="http://www.w3.org/2000/svg" width="16" height="16" viewBox="0 0 16 16"><defs><style>.a{fill:#242a37;opacity:0.7;}</style></defs><path class="a" d="M-1434.763-1461.236a4.191,4.191,0,0,1-1.236-2.984,4.194,4.194,0,0,1,1.236-2.984l3.78-3.78,3.78-3.78a4.193,4.193,0,0,1,2.984-1.236,4.193,4.193,0,0,1,2.984,1.236,4.192,4.192,0,0,1,1.236,2.984,4.193,4.193,0,0,1-1.236,2.984l-3.78,3.78-3.78,3.779a4.192,4.192,0,0,1-2.984,1.236A4.19,4.19,0,0,1-1434.763-1461.236Zm8.355-12.732-3.382,3.382,4.377,4.377,3.382-3.382a3.077,3.077,0,0,0,.906-2.189,3.075,3.075,0,0,0-.906-2.188,3.073,3.073,0,0,0-2.188-.907A3.076,3.076,0,0,0-1426.408-1473.968Zm3.229,1.518a1.408,1.408,0,0,0-1.162-.614,1.4,1.4,0,0,0-1,.412.563.563,0,0,1-.8,0,.563.563,0,0,1,0-.8,2.515,2.515,0,0,1,1.791-.742,2.534,2.534,0,0,1,2.091,1.1.563.563,0,0,1-.146.782.558.558,0,0,1-.317.1A.562.562,0,0,1-1423.179-1472.45Z" transform="translate(1436 1476)"/></svg>