<svg xmlns="http://www.w3.org/2000/svg" xmlns:xlink="http://www.w3.org/1999/xlink" width="663" height="768" viewBox="0 0 663 768"><defs><style>.a{fill:url(#a);}.b{fill:#fff;}.c{fill:#3e65ae;}.d{fill:#315095;}.e{fill:#f89888;}.f{fill:#72a4d5;}.g{fill:#07a3a4;}.h{fill:#242357;}.i{fill:#cf6f70;}.j{fill:url(#b);}.k{fill:url(#c);}.l{fill:#c46065;}.m{fill:#251836;}.n,.t{fill:none;stroke-linecap:round;stroke-miterlimit:10;}.n{stroke:#cf6f70;}.o{fill:#35bdb3;}.p{fill:#5b9dd3;}.q{fill:#68c7ea;}.r{fill:#84dff7;}.s{fill:#2f256a;}.t{stroke:#291d51;stroke-width:2px;}.u{fill:#fecb2f;}.v{fill:#291d51;}.w{fill:#e6eff4;}.x{fill:#fe677a;}.y{fill:#cd437e;}.z{fill:#fcb4c4;}.aa{fill:url(#d);}.ab{fill:url(#e);}</style><linearGradient id="a" x1="-0.077" y1="0.811" x2="0.764" y2="0.356" gradientUnits="objectBoundingBox"><stop offset="0" stop-color="#06f"/><stop offset="1" stop-color="#09cacb"/></linearGradient><linearGradient id="b" x1="0.496" y1="0.022" x2="0.496" y2="1.005" gradientUnits="objectBoundingBox"><stop offset="0" stop-color="#cf6f70"/><stop offset="1" stop-color="#f89888"/></linearGradient><linearGradient id="c" x1="0.506" y1="0.018" x2="0.506" y2="1" xlink:href="#b"/><linearGradient id="d" x1="0.497" y1="0.019" x2="0.497" y2="1.003" xlink:href="#b"/><linearGradient id="e" x1="0.668" y1="-0.213" x2="0.668" y2="0.776" xlink:href="#b"/></defs><g transform="translate(0)"><g transform="translate(0)"><g transform="translate(0)"><path class="a" d="M0,768H660.035c.688-4.261,1.377-8.523,1.893-12.784,6.54-60.433-17.555-121.059-52.837-167.352S528.2,507.287,483.28,473.2c-21-15.883-42.167-32.347-58.173-54.235s-26.5-50.748-22.374-78.834c4.991-34.09,30.291-69.343,14.629-99.172-25.988-49.973-128.221-26.149-81.063-118.735,9.81-19.369,23.751-35.834,32.528-55.978A122.091,122.091,0,0,0,376.745,0H0Z" transform="translate(0 0)"/><g transform="translate(34.68 6.169)"><path class="b" d="M121.076,210.671a1.369,1.369,0,1,0-.9-1.285A1.371,1.371,0,0,0,121.076,210.671Z" transform="translate(51.979 142.361)"/><path class="b" d="M170.976,290.771a1.369,1.369,0,1,0-.9-1.285A1.371,1.371,0,0,0,170.976,290.771Z" transform="translate(87.961 199.532)"/><path class="b" d="M57.482,209.541a2.571,2.571,0,1,0-2.582-2.571A2.576,2.576,0,0,0,57.482,209.541Z" transform="translate(4.908 139.72)"/><path class="b" d="M95.076,97.771a1.369,1.369,0,1,0-.9-1.285,1.371,1.371,0,0,0,.9,1.285Z" transform="translate(33.23 61.779)"/><path class="b" d="M293.076,337.171a1.369,1.369,0,1,0-.9-1.285,1.371,1.371,0,0,0,.9,1.285Z" transform="translate(176.005 232.65)"/><path class="b" d="M296.576,283.071a1.369,1.369,0,1,0-.9-1.285,1.371,1.371,0,0,0,.9,1.285Z" transform="translate(178.528 194.036)"/><path class="b" d="M159.076,364.471a1.369,1.369,0,1,0-.9-1.285A1.371,1.371,0,0,0,159.076,364.471Z" transform="translate(79.38 252.135)"/><path class="b" d="M93.876,353.371a1.369,1.369,0,0,0,0-2.571,1.369,1.369,0,0,0,0,2.571Z" transform="translate(32.365 244.213)"/><path class="b" d="M22.473,303.827a2.314,2.314,0,1,0-2.323-2.314A2.319,2.319,0,0,0,22.473,303.827Z" transform="translate(-20.15 207.383)"/><path class="b" d="M42.676,343.571a1.369,1.369,0,0,0,0-2.571,1.369,1.369,0,0,0,0,2.571Z" transform="translate(-4.554 237.218)"/><path class="b" d="M213.076,335.071a1.369,1.369,0,1,0-.9-1.285A1.371,1.371,0,0,0,213.076,335.071Z" transform="translate(118.318 231.151)"/><path class="b" d="M191.873,43.027a2.314,2.314,0,1,0-2.323-2.314,2.319,2.319,0,0,0,2.323,2.314Z" transform="translate(102.001 21.238)"/><path class="b" d="M75.076,6.171a1.369,1.369,0,0,0,0-2.571,1.369,1.369,0,0,0,0,2.571Z" transform="translate(18.809 -3.6)"/><path class="b" d="M35.876,42.371a1.369,1.369,0,0,0,0-2.571,1.369,1.369,0,0,0,0,2.571Z" transform="translate(-9.458 22.238)"/><path class="b" d="M246.876,361.871a1.369,1.369,0,1,0-.9-1.285,1.371,1.371,0,0,0,.9,1.285Z" transform="translate(142.691 250.279)"/><path class="b" d="M255.874,317.727a2.314,2.314,0,1,0-2.324-2.314,2.319,2.319,0,0,0,2.324,2.314Z" transform="translate(148.15 217.304)"/><path class="b" d="M110.476,391.271a1.369,1.369,0,1,0-.9-1.285A1.371,1.371,0,0,0,110.476,391.271Z" transform="translate(44.335 271.264)"/><path class="b" d="M115.876,168.771a1.369,1.369,0,1,0-.9-1.285,1.371,1.371,0,0,0,.9,1.285Z" transform="translate(48.229 112.455)"/><path class="b" d="M145.976,126.771a1.369,1.369,0,1,0-.9-1.285,1.371,1.371,0,0,0,.9,1.285Z" transform="translate(69.934 82.478)"/><path class="b" d="M215.276,238.371a1.369,1.369,0,1,0-.9-1.285A1.371,1.371,0,0,0,215.276,238.371Z" transform="translate(119.904 162.132)"/><path class="b" d="M307.776,378.071a1.369,1.369,0,1,0-.9-1.285,1.371,1.371,0,0,0,.9,1.285Z" transform="translate(186.605 261.842)"/><path class="b" d="M348.676,364.471a1.369,1.369,0,1,0-.9-1.285,1.371,1.371,0,0,0,.9,1.285Z" transform="translate(216.097 252.135)"/><path class="b" d="M232.276,157.371a1.369,1.369,0,1,0-.9-1.285A1.371,1.371,0,0,0,232.276,157.371Z" transform="translate(132.163 104.318)"/><path class="b" d="M40.176,115.771a1.369,1.369,0,0,0,0-2.571,1.369,1.369,0,0,0,0,2.571Z" transform="translate(-6.357 74.627)"/><g transform="translate(0.086 0.306)"><path class="b" d="M122.582,209.172a1.379,1.379,0,1,0-1.291.894A1.377,1.377,0,0,0,122.582,209.172Z" transform="translate(51.764 142.183)"/><path class="b" d="M172.382,289.272a1.379,1.379,0,1,0-1.291.894,1.377,1.377,0,0,0,1.291-.894Z" transform="translate(87.674 199.354)"/><path class="b" d="M60.063,206.871a2.582,2.582,0,1,0-2.582,2.571,2.576,2.576,0,0,0,2.582-2.571Z" transform="translate(4.822 139.343)"/><path class="b" d="M96.582,96.272a1.379,1.379,0,0,0-2.582,0,1.379,1.379,0,0,0,2.582,0Z" transform="translate(33.016 61.601)"/><path class="b" d="M294.582,335.772a1.379,1.379,0,1,0-1.291.894,1.377,1.377,0,0,0,1.291-.894Z" transform="translate(175.79 232.543)"/><path class="b" d="M298.082,281.672a1.379,1.379,0,1,0-1.291.894,1.377,1.377,0,0,0,1.291-.894Z" transform="translate(178.314 193.929)"/><path class="b" d="M160.582,362.972a1.379,1.379,0,1,0-1.291.894A1.377,1.377,0,0,0,160.582,362.972Z" transform="translate(79.165 251.957)"/><path class="b" d="M95.382,351.972a1.379,1.379,0,1,0-1.291.894A1.377,1.377,0,0,0,95.382,351.972Z" transform="translate(32.15 244.106)"/><path class="b" d="M24.847,301.564a2.323,2.323,0,1,0-2.323,2.314,2.319,2.319,0,0,0,2.323-2.314Z" transform="translate(-20.2 207.113)"/><path class="b" d="M44.182,342.172a1.379,1.379,0,1,0-1.291.894,1.377,1.377,0,0,0,1.291-.894Z" transform="translate(-4.769 237.111)"/><path class="b" d="M214.582,333.572a1.379,1.379,0,1,0-1.291.894,1.377,1.377,0,0,0,1.291-.894Z" transform="translate(118.103 230.973)"/><path class="b" d="M159.5,62.8c0-4.8-7.4-4.8-7.4,0S159.5,67.6,159.5,62.8Z" transform="translate(74.911 35.779)"/><path class="b" d="M334.1,311.8c0-4.8-7.4-4.8-7.4,0S334.1,316.6,334.1,311.8Z" transform="translate(200.811 213.501)"/><path class="b" d="M76.582,4.672a1.379,1.379,0,0,0-2.582,0,1.379,1.379,0,0,0,2.582,0Z" transform="translate(18.594 -3.778)"/><path class="b" d="M37.382,40.872a1.379,1.379,0,0,0-2.582,0,1.379,1.379,0,0,0,2.582,0Z" transform="translate(-9.672 22.059)"/><path class="b" d="M248.282,360.472a1.379,1.379,0,1,0-1.291.894A1.377,1.377,0,0,0,248.282,360.472Z" transform="translate(142.404 250.172)"/><path class="b" d="M258.147,315.464a2.323,2.323,0,1,0-2.323,2.314A2.318,2.318,0,0,0,258.147,315.464Z" transform="translate(148.028 217.034)"/><path class="b" d="M111.982,389.872a1.379,1.379,0,1,0-1.291.894,1.377,1.377,0,0,0,1.291-.894Z" transform="translate(44.12 271.157)"/><path class="b" d="M117.282,167.272a1.379,1.379,0,1,0-1.291.894,1.377,1.377,0,0,0,1.291-.894Z" transform="translate(47.942 112.277)"/><path class="b" d="M147.382,125.272a1.379,1.379,0,1,0-1.291.894A1.377,1.377,0,0,0,147.382,125.272Z" transform="translate(69.647 82.299)"/><path class="b" d="M216.682,236.872a1.379,1.379,0,1,0-1.291.894A1.377,1.377,0,0,0,216.682,236.872Z" transform="translate(119.618 161.953)"/><path class="b" d="M309.282,376.672a1.379,1.379,0,1,0-1.291.894,1.377,1.377,0,0,0,1.291-.894Z" transform="translate(186.39 261.735)"/><path class="b" d="M350.182,362.972a1.379,1.379,0,1,0-1.291.894A1.377,1.377,0,0,0,350.182,362.972Z" transform="translate(215.882 251.957)"/><path class="b" d="M233.782,155.972a1.379,1.379,0,1,0-1.291.894A1.377,1.377,0,0,0,233.782,155.972Z" transform="translate(131.948 104.211)"/><path class="b" d="M41.682,114.372a1.379,1.379,0,1,0-1.291.894,1.377,1.377,0,0,0,1.291-.894Z" transform="translate(-6.572 74.52)"/><path class="b" d="M203.882,10.272a1.379,1.379,0,0,0-2.582,0,1.379,1.379,0,0,0,2.582,0Z" transform="translate(110.388 0.219)"/></g><path class="b" d="M202.476,11.671a1.369,1.369,0,1,0-.9-1.285,1.371,1.371,0,0,0,.9,1.285Z" transform="translate(110.675 0.326)"/></g></g></g><g transform="translate(33.414 66.788)"><g transform="translate(339.606 196.448)"><path class="c" d="M337.777,213.264c-.409,14.731-1.433,63.443,0,120.01s5.937,109.6,5.937,109.6h17.81L380.359,248.03l59.368,194.845h18.424S441.978,278.867,418.845,211.3Z" transform="translate(-244.405 7.211)"/><path class="d" d="M371.588,277.328l-1.228,13.356a72.844,72.844,0,0,1-32.345,2.357L337.4,273.4Z" transform="translate(-244.027 67.085)"/><path class="d" d="M370.561,230,346.2,414.239h7.37Z" transform="translate(-234.812 25.241)"/><path class="d" d="M371.692,231.138a80.649,80.649,0,0,0,40.125-4.125l19.039,68.549-26.613,32.409,2.047,6.875s20.062-8.642,28.456-23.57l20.062,120.992h1.638c-4.094-37.319-18.629-163.811-38.077-220.968L337.3,213.264a57.222,57.222,0,0,0,34.393,17.874Z" transform="translate(-244.132 7.211)"/><path class="e" d="M357.087,329.3l-1.433,30.248H341.119L340.3,329.3Z" transform="translate(-240.991 120.982)"/><path class="e" d="M403.463,329.3l3.89,30.248H392.2L387.7,329.3Z" transform="translate(-191.355 120.982)"/><rect class="f" width="23.542" height="10.646" rx="0.8" transform="translate(96.443 439.479)"/><path class="f" d="M408.041,334.506H387.364a1.416,1.416,0,0,1-1.433-1.178l-1.024-7.857a1.337,1.337,0,0,1,.34-1.1,1.46,1.46,0,0,1,1.093-.469h20.676a1.416,1.416,0,0,1,1.433,1.179l1.024,7.857a1.338,1.338,0,0,1-.34,1.1,1.461,1.461,0,0,1-1.093.469Z" transform="translate(-194.294 115.776)"/><path class="g" d="M355.515,147.264c-1.842,5.7-11.055,34.962-11.055,34.962s39.1-26.123,42.786-25.731l-10.031,34.373s-55.273,27.891-64.9,22.784-5.527-11.981,3.685-31.034,18.015-33.784,23.133-42.819Z" transform="translate(-276.063 -61.727)"/><path class="g" d="M385.992,148.3c-10.031,6.089-24.566,34.373-39.715,43.212S313.113,206.243,308.2,203.1a9.563,9.563,0,0,0,3.071,2.357c6.551,3.536,35.621-9.035,52.612-16.892Z" transform="translate(-274.605 -53.531)"/><path class="h" d="M399.356,111.146a16.158,16.158,0,0,1,11.874.786c6.756,2.946,9.417,8.839,10.031,16.5s2.457,10.8,6.142,13.749,8.189,9.624,6.346,19.249a18.331,18.331,0,0,0,4.708,16.106s-11.464,13.749-46.266,13.749-57.935-9.821-57.935-9.821a12.478,12.478,0,0,0,0-9.821c-2.252-5.3-3.071-11.392,1.024-17.285s7.779-9.428,6.96-15.32-2.457-26.516,22.314-36.141S399.356,111.146,399.356,111.146Z" transform="translate(-249.277 -100.051)"/><path class="e" d="M390.411,131.3s-1.638,20.231-1.433,23.766,1.228,5.3,5.732,6.482,12.283,6.285,12.283,6.285-12.283,32.016-47.29,33.98-4.5-38.5-4.5-38.5a76.913,76.913,0,0,0,9.008-2.553c1.842-.982,2.047-5.893,2.047-12.178Z" transform="translate(-238.284 -69.922)"/><path class="i" d="M354.3,154.381h0c18.015,0,23.747-16.892,23.747-16.892h0l.409-6.089L354.5,148.685A51.163,51.163,0,0,1,354.3,154.381Z" transform="translate(-226.33 -69.826)"/><path class="e" d="M370.245,103.7c-11.874-.2-25.794,6.875-27.432,23.57s.2,30.445,3.276,36.337,9.212,11.785,12.9,12.374S382.937,175,390.1,160.466A51.113,51.113,0,0,0,393.378,153a7.617,7.617,0,0,0,8.8-.589c4.3-3.536,7.165-12.767,4.708-16.892s-7.574-4.91-12.283-.982a30.018,30.018,0,0,0,1.024-9.624C395.22,118.826,391.331,103.9,370.245,103.7Z" transform="translate(-239 -96.535)"/><path class="i" d="M394.4,134.539v-.786c-.2-4.321-13.511-22.2-19.039-29.659l-5.323-.393c-11.874-.2-25.794,6.875-27.432,23.57-.2,1.375-.2,2.75-.409,4.125s9.007.982,9.826.393S357.76,114.7,357.76,114.7s.614,17.874,1.024,18.66,10.236,2.553,11.464,0a132.466,132.466,0,0,0,3.685-14.731c1.023,5.3,3.275,15.124,3.89,16.106S391.538,136.9,394.4,134.539Z" transform="translate(-239.003 -96.535)"/><path class="j" d="M361.26,116.4h0a6.824,6.824,0,0,0-6.96,6.678v2.161a6.824,6.824,0,0,0,6.96,6.678h0a6.824,6.824,0,0,0,6.96-6.678v-2.161A6.824,6.824,0,0,0,361.26,116.4Z" transform="translate(-226.33 -84.288)"/><path class="k" d="M349.06,116.1h0a6.824,6.824,0,0,0-6.96,6.678v2.161a6.824,6.824,0,0,0,6.96,6.678h0a6.824,6.824,0,0,0,6.96-6.678v-2.161a6.824,6.824,0,0,0-6.96-6.678Z" transform="translate(-239.106 -84.577)"/><path class="i" d="M349.837,131.3c.614,1.179,1.228,2.553-1.433,4.714l-3.276,2.75-1.228-2.357Z" transform="translate(-237.221 -69.922)"/><path class="l" d="M354.374,122.1c1.228-.393,2.457,12.178,1.023,12.963s-6.96-.2-7.574-1.179S353.145,122.5,354.374,122.1Z" transform="translate(-233.16 -78.797)"/><path class="m" d="M362.96,124.239a3.483,3.483,0,1,0-3.48,3.339A3.412,3.412,0,0,0,362.96,124.239Z" transform="translate(-224.55 -79.949)"/><path class="m" d="M350.76,123.939a3.483,3.483,0,1,0-3.48,3.339,3.412,3.412,0,0,0,3.48-3.339Z" transform="translate(-237.326 -80.239)"/><path class="n" d="M376.09,123.9a3.12,3.12,0,0,0-1.383-2.285,3.389,3.389,0,0,0-2.711-.465c-3.48.589-5.527,6.482-2.252,9.428" transform="translate(-211.886 -79.807)"/><path class="n" d="M372.394,125.046a2.147,2.147,0,0,0-1.381-2.384,2.3,2.3,0,0,0-2.714.813" transform="translate(-211.67 -78.4)"/><path class="g" d="M370.948,146.989s-9.417,28.284-5.732,30.052S402.065,146.4,402.065,146.4l16.991,5.5c5.527,1.768,9.212,2.161,7.779,6.875s-1.024,21.409-13.716,53.425c-4.5,11.2-5.937,22.588-2.661,32.016,2.252,6.285,12.078,29.07,12.078,29.07s-41.967,31.23-82.3,2.75c0,0,2.661-52.247,7.37-63.05a22.355,22.355,0,0,1-11.874-12.571C331.642,190,338.6,180.969,342.9,173.9s15.558-23.766,15.558-23.766Z" transform="translate(-247.072 -55.363)"/><path class="o" d="M340.447,187.4c-.819,5.893-1.638,12.767-2.047,19.249,0,0,26.2.982,41.353,12.963a57.492,57.492,0,0,1,18.22,24.356,87.191,87.191,0,0,0,19.243-9.428C402.476,201.935,375.658,187.989,340.447,187.4Z" transform="translate(-242.98 -15.833)"/><g transform="translate(144.347 111.223)"><path class="g" d="M362.3,276.536a85.909,85.909,0,0,0,31.117-13.356s-10.031-22.784-12.078-29.07c-3.275-9.232-1.638-20.82,2.661-32.016a223.5,223.5,0,0,0,7.779-22.588c0-.2-5.937-13.553-3.276-22.784-.819-.589-3.071,4.714-2.866,11.392s-3.685,3.536-4.913,4.714,3.89,5.107,1.433,14.142-11.055,23.177-9.007,39.873,8.6,27.3,9.212,31.034S373.355,273.393,362.3,276.536Z" transform="translate(-362.3 -156.677)"/></g><g transform="translate(0 146.277)"><path class="p" d="M305.141,334.6a19.959,19.959,0,0,1,2.628-22.8,22.07,22.07,0,0,1,22.976-6.361,20.816,20.816,0,0,1,14.887,17.955,20.469,20.469,0,0,1-11.627,20.049C323.488,348.6,310.6,344.654,305.141,334.6Z" transform="translate(-280.349 -49.251)"/><path class="q" d="M330.028,336.315a18.546,18.546,0,0,0,10.092-13.176,17.961,17.961,0,0,0-4.77-15.7,22.281,22.281,0,0,0-21.733-.213A20.482,20.482,0,0,0,302.8,325.316a18.74,18.74,0,0,0,10.948,11.842,19.976,19.976,0,0,0,16.484-.646Z" transform="translate(-280.26 -49.201)"/><path class="q" d="M344.014,183.9a106.111,106.111,0,0,0-51.384,46.943,6.813,6.813,0,0,0-.477,5.475,7.167,7.167,0,0,0,3.752,4.15l25.18,11.981a7.519,7.519,0,0,0,9.826-3.143c15.755-28.747,51.742-41.243,83.023-28.828s47.551,45.651,37.536,76.676-43.017,49.619-76.135,42.9c-15.1-2.918-30,5.812-34.188,20.035l-3.275,10.41-11.259,36.337a6.817,6.817,0,0,0,.621,5.453,7.329,7.329,0,0,0,4.5,3.386l27.023,7.66a7.647,7.647,0,0,0,5.683-.6,7.126,7.126,0,0,0,3.529-4.315l11.055-36.141c45.372,4.029,88.533-19.571,108.046-59.077s11.22-86.5-20.759-117.643S385.475,165.771,344.014,183.9Z" transform="translate(-291.789 -174.524)"/><path class="p" d="M474.517,232.6c-2.252,12.767-19.039,57.55-56.706,73.067-22.314,9.232-47.7,10.214-61.006,9.821a11.822,11.822,0,0,0-11.874,8.446c-1.842,6.285-4.3,14.731-6.756,22-3.89,12.374-9.008,18.66-24.975,14.535l23.133,6.482a7.647,7.647,0,0,0,5.683-.6,7.126,7.126,0,0,0,3.529-4.315L356.6,325.9C415.975,331.255,468.691,289.546,474.517,232.6Z" transform="translate(-269.369 -118.529)"/><path class="r" d="M375.026,175c-35.256,4.357-66.026,25.066-82.3,55.389a6.813,6.813,0,0,0-.477,5.475,7.167,7.167,0,0,0,3.752,4.15l21.5,10.214c-21.086-11.981-18.424-12.571-3.48-35.944S359.672,178.143,375.026,175Z" transform="translate(-291.685 -174.065)"/><path class="r" d="M376.342,272.12a52.524,52.524,0,0,0,38.282-20.82h0A67.464,67.464,0,0,1,357.3,266.228c-15.179-3.165-30.313,5.513-34.6,19.838l-3.275,10.41L309.4,328.884s7.575-18.463,13.511-33,10.236-19.838,19.243-22.981S354.847,273.692,376.342,272.12Z" transform="translate(-273.348 -100.499)"/><path class="p" d="M406.494,196.4,385,205.239l-26-5.3c.2,5.893,10.031,7.071,10.031,7.071l-3.275,5.107a17.376,17.376,0,0,0,.2,1.964,62.352,62.352,0,0,1,7.779,9.428h0c7.984.393,20.267-8.446,20.267-8.446l1.638,1.179c3.275-1.768,15.354-12.964,15.558-13.16S408.132,198.561,406.494,196.4Z" transform="translate(-221.409 -153.432)"/></g><path class="e" d="M391.029,197.264c-5.527,3.143-21.7,1.768-26.818.2s-.819,2.946,1.228,4.518a26.509,26.509,0,0,0,8.6,2.946c-1.024.982-4.094,3.143-10.645,1.964s-5.732-3.339-7.984-4.321a8.879,8.879,0,0,0,.2,5.892,16.98,16.98,0,0,0,13.716,11.589c9.212,1.571,27.637-12.374,27.637-12.374Z" transform="translate(-225.596 -6.448)"/><path class="i" d="M372.6,197.2a22.025,22.025,0,0,0,4.3,11.392l1.638-1.178Z" transform="translate(-207.167 -6.384)"/><path class="e" d="M323.7,149.783s6.756-11.589,9.007-12.767,12.078-3.536,22.314-6.482c1.842-.393,3.48.982,4.5,1.768l9.826-.589c2.252,0,2.457,1.964-2.866,4.91s-18.424,11.2-24.975,11.392l-5.118,7.857Z" transform="translate(-258.374 -70.727)"/><path class="s" d="M391.8,110.228a25.525,25.525,0,0,0-24.157-8.839c-18.424,2.75-25.18,13.16-28.046,33.587,0,0,11.669,1.571,13.511,0s6.346-18.66,6.346-18.66-.2,17.285.819,18.66,11.055,1.768,12.078,0,2.252-16.5,2.252-16.5,1.638,16.106,4.913,17.481,17.606,1.178,17.606,1.178,2.047-2.946,1.024-12.178A26.879,26.879,0,0,0,391.8,110.228Z" transform="translate(-241.724 -99.133)"/><path class="s" d="M370.109,121.328s-1.228,11-2.252,11S365.4,117.4,365.4,117.4Z" transform="translate(-214.707 -83.324)"/><path class="t" d="M355.2,116c1.433,1.375,4.913,1.768,6.756,2.161s6.756,2.553,6.96,5.7" transform="translate(-225.388 -84.674)"/><path class="t" d="M353.55,116.636c-2.661-.982-9.417.589-10.85,5.7" transform="translate(-238.477 -84.328)"/><path class="i" d="M345.489,131.786l-8.189.982L344.465,131Z" transform="translate(-244.132 -70.211)"/><path class="n" d="M352.2,137.2c2.047-4.125,6.96-5.107,10.645-5.5" transform="translate(-228.529 -69.536)"/><path class="g" d="M326.771,162.653s-2.252,8.053-3.071,10.017a43.627,43.627,0,0,0,6.96-12.571Z" transform="translate(-258.374 -42.154)"/><path class="i" d="M349.7,138.2a16.608,16.608,0,0,1-9.008.589l-4.913,7.267L323.7,142.325l13.1,6.089,5.118-7.857A23,23,0,0,0,349.7,138.2Z" transform="translate(-258.374 -63.269)"/><path class="g" d="M381.717,151.652c1.433-2.75,6.551-3.339,14.74,11.785s29.889,55.389,28.66,60.693-40.943,27.105-45.652,29.462a26.174,26.174,0,0,1-7.165-13.16l27.432-23.177s-17.81-27.891-19.858-33.587S374.552,165.2,381.717,151.652Z" transform="translate(-207.481 -51.777)"/><path class="i" d="M340.3,329.3h16.991v2.357S345.418,331.657,340.3,329.3Z" transform="translate(-240.991 120.982)"/><path class="i" d="M387.7,329.3h15.763s-2.661,1.571-15.559,2.357Z" transform="translate(-191.355 120.982)"/><path class="i" d="M355.017,203.139a12,12,0,0,0,8.6,2.553c5.527-.393,8.393-1.571,10.441-3.536s-4.094,3.143-10.645,1.964-5.732-3.339-7.984-4.321A7.937,7.937,0,0,0,355.017,203.139Z" transform="translate(-225.614 -3.877)"/><path class="g" d="M420.989,191.764c-1.842,1.964-32.345,19.838-38.077,22.2s-9.212.786-9.212.786a26.016,26.016,0,0,0,4.5,5.892c4.5-2.161,44.628-24.356,45.652-29.462a18.059,18.059,0,0,0-1.842-6.875C422.013,184.5,423.241,189.6,420.989,191.764Z" transform="translate(-206.015 -18.821)"/><path class="u" d="M386.423,185.83a16.307,16.307,0,0,1,6.96-2.946,13.379,13.379,0,0,0-7.984,1.179Z" transform="translate(-193.763 -20.351)"/><g transform="translate(191.89 462.064)"><path class="s" d="M390.8,339.426c2.252,0,5.323,8.839,7.779,8.839s8.8-12.767,11.464-12.964,5.527,9.035,9.008,12.178,24.361,9.428,28.66,10.41,6.142,3.339,6.142,7.857H385.68a21.179,21.179,0,0,1,1.433-10.607C389.569,349.64,388.546,339.426,390.8,339.426Z" transform="translate(-385.524 -335.298)"/><path class="b" d="M453.361,349.2H385.6v3.143h68.171a11.332,11.332,0,0,0-.409-3.143Z" transform="translate(-385.444 -321.895)"/><path class="v" d="M392.356,360.577a38.486,38.486,0,0,1,.819-10.017,38.959,38.959,0,0,0,1.433-8.642c-1.433-2.161-2.661-4.518-3.889-4.518s-1.228,10.214-3.48,15.713a21.235,21.235,0,0,0-1.638,7.464Z" transform="translate(-385.444 -333.272)"/><path class="w" d="M453.771,351.571H385.6V350h68.171a14.341,14.341,0,0,1,0,1.571Z" transform="translate(-385.444 -321.124)"/></g><g transform="translate(54.045 462.064)"><path class="s" d="M381.253,339.426c-2.252,0-5.323,8.839-7.779,8.839s-8.8-12.767-11.464-12.964-5.527,9.035-9.008,12.178-24.361,9.428-28.66,10.41-6.142,3.339-6.142,7.857h67.966a21.179,21.179,0,0,0-1.433-10.607C382.481,349.64,383.5,339.426,381.253,339.426Z" transform="translate(-318.178 -335.298)"/><path class="b" d="M318.61,349.2h67.761v3.143H318.2A11.339,11.339,0,0,1,318.61,349.2Z" transform="translate(-318.178 -321.895)"/><path class="v" d="M349.352,360.577a38.68,38.68,0,0,0-.819-10.017,38.764,38.764,0,0,1-1.433-8.642c1.433-2.161,2.661-4.518,3.89-4.518s1.228,10.214,3.48,15.713a21.234,21.234,0,0,1,1.638,7.464Z" transform="translate(-287.914 -333.272)"/><path class="w" d="M318.211,351.571h68.171V350H318.211A13.8,13.8,0,0,0,318.211,351.571Z" transform="translate(-318.189 -321.124)"/></g></g><g transform="translate(0 361.938)"><path class="e" d="M200.3,339.545s98.469-46.747,111.775-50.479c4.708-1.375,13.511-1.178,21.5,13.553,18.22,32.8,54.455,90.941,54.455,90.941h-17.2l-53.636-66.782L211.355,393.559Z" transform="translate(-47.988 -83.823)"/><path class="i" d="M279.608,300.6l1.842,4.714-32.345,49.1s-42.376,29.07-43.4,27.3S279.608,300.6,279.608,300.6Z" transform="translate(-42.339 -72.18)"/><path class="e" d="M167.779,368.733c-1.638,4.714-6.141,17.677-2.457,28.873s15.763,21.606,32.55,21.606H229.6c7.37,0,24.566-7.267,41.762-30.445s52.2-68.353,52.2-68.353l31.117,83.477h14.125S347.52,307.059,343.835,293.9c-5.118-17.874-17.2-19.445-39.51-.393-18.015,15.32-65.919,54.407-65.919,54.407s-15.558,21.606-44.833,8.249Z" transform="translate(-86.094 -92.191)"/><path class="c" d="M238.652,320.381,253.187,308.4s24.771,21.606,32.14,39.283c0,0-29.07,43.8-55.683,43.8H197.914c-14.33,0-27.637-7.66-32.55-21.606s2.457-28.873,2.457-28.873l26.2-17.481Z" transform="translate(-86.341 -64.659)"/><path class="d" d="M193.056,317.164l-26.2,17.481a43.556,43.556,0,0,0-2.252,6.285c17.2,0,29.274-12.178,29.274-12.178,15.558,7.071,26-1.571,26-1.571V315.2Z" transform="translate(-85.372 -58.103)"/><path class="e" d="M174.2,284.31c2.252-.982,10.645.786,35.825,5.3s33.983,4.91,33.983,4.91,61.21-54.211,63.667-53.622,6.142,11,6.142,11-54.045,66.389-61.824,67.567c-3.685.589-58.958-1.964-58.958-1.964Z" transform="translate(-75.319 -129.742)"/><path class="i" d="M208.4,298.93h7.984c4.094-.589,20.881-19.249,35.825-36.73-.2.2-33.983,31.819-35.621,32.605a12.787,12.787,0,0,1-5.732,0l-2.661-20.82v24.748Z" transform="translate(-39.716 -109.204)"/><path class="x" d="M172,263.275V261.9a59.174,59.174,0,0,1,10.645,1.375l60.8,10.017v26.32l-48.313-2.553Z" transform="translate(-77.623 -109.493)"/><path class="y" d="M215.09,282.627c-4.708-4.91-20.267-13.16-29.07-17.088A33.447,33.447,0,0,0,172.1,262.2v.786l23.338,33.98,48.313,2.553L221.027,294.8A23.744,23.744,0,0,0,215.09,282.627Z" transform="translate(-77.518 -109.204)"/><path class="z" d="M214.411,296.066H202.333a1.4,1.4,0,0,1-1.433-1.375V267.782a1.351,1.351,0,0,1,.489-1.049,1.474,1.474,0,0,1,1.148-.326l12.078,1.178a1.394,1.394,0,0,1,1.228,1.375v25.731a1.4,1.4,0,0,1-1.433,1.375Z" transform="translate(-47.36 -105.161)"/><path class="s" d="M199.373,222.8a24.7,24.7,0,0,0-20.881-4.91c-14.33,2.946-19.039,11.981-21.29,23.374s-8.189,16.892-9.417,28.087,4.094,31.427,24.771,34.176l5.732-22.784Z" transform="translate(-103.154 -152.49)"/><path class="h" d="M169.6,220.6s6.346-7.464,20.472-4.321c9.622,2.161,20.676,9.035,19.653,21.8s.409,15.517,2.252,21.8-1.228,19.445-12.078,24.159l-25.18-56.175A9.822,9.822,0,0,0,169.6,220.6Z" transform="translate(-80.136 -154.223)"/><path class="e" d="M166.412,247.9l-3.685,25.927-5.527,4.518s13.307,18.66,23.338,22.391,23.952,1.375,25.18-.786c4.094-7.464-10.236-21.213-10.236-21.213L187.5,276.38l2.661-12.963Z" transform="translate(-93.121 -122.991)"/><path class="i" d="M162.014,247.9l-.614,4.125A25.144,25.144,0,0,0,171.431,264.2a28.192,28.192,0,0,0,13.511,4.518l1.024-4.91Z" transform="translate(-88.723 -122.991)"/><path class="e" d="M185.779,222.535c11.669-2.161,24.157.2,29.274,16.106a88.577,88.577,0,0,1,3.89,36.141c-.614,6.482-2.457,11.981-5.937,13.16s-27.841,4.518-37.873-8.249a52.376,52.376,0,0,1-4.708-6.678,7.609,7.609,0,0,1-8.8.982c-4.913-2.75-9.417-11.2-7.984-15.713s6.346-6.089,11.874-3.143a30.3,30.3,0,0,1-2.866-9.232C161.622,240.016,164.9,226.463,185.779,222.535Z" transform="translate(-97.134 -148.105)"/><path class="aa" d="M191.624,242.986a97.187,97.187,0,0,0-3.071-12.178,7.221,7.221,0,0,0-3.685-.589h0a7.04,7.04,0,0,0-4.7,2.5,6.486,6.486,0,0,0-1.444,4.964v1.964a6.761,6.761,0,0,0,5.056,5.758,7.125,7.125,0,0,0,7.431-2.419Z" transform="translate(-70.634 -140.075)"/><path class="ab" d="M173.969,231.625h0a7.04,7.04,0,0,0-4.7,2.5,6.485,6.485,0,0,0-1.444,4.964v1.964a6.614,6.614,0,0,0,2.605,4.507,7.173,7.173,0,0,0,5.174,1.385h0a7.04,7.04,0,0,0,4.7-2.5,6.485,6.485,0,0,0,1.444-4.964v-1.964a6.615,6.615,0,0,0-2.605-4.507,7.173,7.173,0,0,0-5.174-1.385Z" transform="translate(-82.049 -138.732)"/><path class="i" d="M182.772,221.8s5.118,11.2-.614,22.2-19.858,11-19.858,11Z" transform="translate(-87.781 -148.156)"/><path class="l" d="M178.55,237.621c-1.433.982-1.433,12.374,0,13.16s8.393-1.375,8.393-2.553S179.778,236.835,178.55,237.621Z" transform="translate(-71.89 -132.943)"/><path class="m" d="M180.523,238.6a3.357,3.357,0,0,1,2.849-3.82,3.471,3.471,0,0,1,4.011,2.694,3.35,3.35,0,0,1-2.766,3.876,3.6,3.6,0,0,1-2.654-.543,3.326,3.326,0,0,1-1.441-2.206Z" transform="translate(-68.745 -135.689)"/><path class="m" d="M170.323,239.8a3.357,3.357,0,0,1,2.849-3.82,3.471,3.471,0,0,1,4.011,2.694,3.35,3.35,0,0,1-2.766,3.876,3.6,3.6,0,0,1-2.654-.543,3.326,3.326,0,0,1-1.44-2.206Z" transform="translate(-79.426 -134.532)"/><path class="n" d="M155.7,244.242a3.073,3.073,0,0,1,.953-2.425,3.354,3.354,0,0,1,2.528-.914c3.48,0,6.756,5.5,4.094,9.035" transform="translate(-94.695 -129.743)"/><path class="n" d="M157.793,245.079a2.112,2.112,0,0,1,.82-2.649,2.323,2.323,0,0,1,2.864.292" transform="translate(-92.691 -128.616)"/><path class="x" d="M172.131,261.2s-2.457-.2-12.488,4.714S146.951,272,148.384,278.289s7.575,32.212,24.975,55.586a247.349,247.349,0,0,0,18.629,21.213c2.047,2.357,2.457,5.7-1.433,12.964s-8.6,19.052-8.6,19.052,12.488-2.946,18.629-6.089A43.675,43.675,0,0,0,210,374.14a26.7,26.7,0,0,0,20.267,6.482c18.22-2.161,24.566-14.731,24.566-14.731a131.358,131.358,0,0,0-7.574-25.141c-5.323-12.374-9.826-20.034-9.417-23.57s7.984-19.052,1.228-29.07-28.251-21.017-31.936-22.2a31.672,31.672,0,0,0-8.393-1.375s20.881,16.106,12.692,22.588c-2.457,1.964-9.417,3.536-17.81-2.553S180.525,269.057,172.131,261.2Z" transform="translate(-102.73 -110.168)"/><path class="y" d="M164.541,299.99c-.409-7.071-5.732-15.124-5.732-15.517a100.338,100.338,0,0,1,2.661,18.07c.409,10.017-3.071,25.141-3.071,25.338l4.3,6.089a247.355,247.355,0,0,0,18.629,21.213c2.047,2.357,2.457,5.7-1.433,12.964s-8.6,19.052-8.6,19.052,5.118-1.179,10.441-2.946c-.409-6.285,3.275-16.106,4.708-20.624s3.071-6.482,0-9.821a96.815,96.815,0,0,1-10.85-16.3c-4.3-7.66-6.142-15.124-4.3-21.409s7.574-22.784,5.323-37.123h0c-5.118-5.5-9.212-12.178-15.149-17.874C172.321,274.653,164.541,299.99,164.541,299.99Z" transform="translate(-91.864 -110.264)"/><path class="x" d="M156.674,266.511c-3.48-.589-7.165-1.375-7.984,16.7-.614,14.928-3.89,68.746-3.89,68.746h22.314s6.551-34.176,7.779-43.408C177.759,287.528,174.484,270.047,156.674,266.511Z" transform="translate(-106.106 -105.265)"/><path class="e" d="M164.593,313.378l-3.275,61.871c-.2,4.518-12.283,6.089-22.724,7.071s-14.33,3.732-12.078,5.7h44.628c3.89,0,4.094-2.161,5.118-11.392s8.393-64.425,8.393-64.425Z" transform="translate(-125.899 -60.995)"/><path class="i" d="M144.6,316.8v3.339s11.669.589,19.448-1.768V316.6Z" transform="translate(-106.315 -56.753)"/><path class="s" d="M162.161,256.895a24.742,24.742,0,0,0,22.314-10.214,29.01,29.01,0,0,0,3.48-25.141,24.063,24.063,0,0,0-24.771,4.91C151.311,237.057,158.272,254.538,162.161,256.895Z" transform="translate(-93.783 -149.86)"/><path class="s" d="M159.9,259.1s12.488,1.179,19.653,8.25,13.921,18.07,10.441,32.605-4.913,21.213-.819,24.945,9.826,0,9.826,0-5.118,11.589-20.676,7.071c-11.464-3.143-15.763-13.749-11.874-30.052s3.685-26.713-6.551-38.89Z" transform="translate(-90.294 -112.192)"/><path class="n" d="M173,248.405s6.96-.393,10.85,3.536" transform="translate(-76.576 -122.514)"/><path class="z" d="M167.978,323.256H144.641a1.46,1.46,0,0,1-1.093-.469,1.337,1.337,0,0,1-.34-1.1l.614-10.41a1.4,1.4,0,0,1,1.433-1.375h24.157a1.461,1.461,0,0,1,1.093.469,1.337,1.337,0,0,1,.34,1.1l-1.433,10.41A1.4,1.4,0,0,1,167.978,323.256Z" transform="translate(-107.789 -63.213)"/><path class="i" d="M239.9,307.153l12.488,24.159,2.047-1.375c-4.3-11.2-9.417-24.159-8.6-30.837Z" transform="translate(-6.52 -73.626)"/><path class="i" d="M257.558,313.492a19.1,19.1,0,0,1,1.433-11.392s3.071,9.624,13.511,23.766,42.376,54.6,42.376,54.6h-3.685Z" transform="translate(11.647 -70.733)"/><g transform="translate(310.558 296.574)"><path class="s" d="M282.693,339.426c2.252,0,5.323,8.839,7.779,8.839s8.8-12.767,11.464-12.964,5.527,9.035,9.008,12.178,24.361,9.428,28.66,10.41,6.142,3.339,6.142,7.857H277.78a21.179,21.179,0,0,1,1.433-10.607C281.465,349.64,280.441,339.426,282.693,339.426Z" transform="translate(-277.575 -335.298)"/><path class="b" d="M345.361,349.2H277.6v3.143h68.171a11.337,11.337,0,0,0-.409-3.143Z" transform="translate(-277.6 -321.895)"/><path class="v" d="M284.356,360.577a38.486,38.486,0,0,1,.819-10.017,38.765,38.765,0,0,0,1.433-8.642c-1.433-2.161-2.661-4.518-3.89-4.518s-1.228,10.214-3.48,15.713a21.236,21.236,0,0,0-1.638,7.464Z" transform="translate(-277.6 -333.272)"/><path class="w" d="M345.771,351.571H277.6V350h68.171A14.311,14.311,0,0,1,345.771,351.571Z" transform="translate(-277.6 -321.124)"/></g><path class="d" d="M226.9,376.736c26.613,0,55.683-43.8,55.683-43.8a56.573,56.573,0,0,0-4.913-9.035S252.69,355.523,243.478,362s-28.046,7.267-44.628,7.267-26,0-32.55-7.267a34.191,34.191,0,0,0,29.07,14.731Z" transform="translate(-83.592 -49.715)"/><g transform="translate(258.199 296.574)"><path class="s" d="M257.3,339.426c2.252,0,5.323,8.839,7.779,8.839s8.8-12.767,11.464-12.964,5.527,9.035,9.008,12.178,24.361,9.428,28.66,10.41,6.142,3.339,6.142,7.857H252.18a21.178,21.178,0,0,1,1.433-10.607C256.069,349.64,255.046,339.426,257.3,339.426Z" transform="translate(-252.024 -335.298)"/><path class="b" d="M319.861,349.2H252.1v3.143h68.171a11.333,11.333,0,0,0-.409-3.143Z" transform="translate(-251.944 -321.895)"/><path class="v" d="M258.856,360.577a38.485,38.485,0,0,1,.819-10.017,38.768,38.768,0,0,0,1.433-8.642c-1.433-2.161-2.661-4.518-3.89-4.518s-1.228,10.214-3.48,15.713a21.234,21.234,0,0,0-1.638,7.464Z" transform="translate(-251.944 -333.272)"/><path class="w" d="M320.271,351.571H252.1V350h68.171A14.341,14.341,0,0,1,320.271,351.571Z" transform="translate(-251.944 -321.124)"/></g><path class="t" d="M180.492,230.1c-1.024,1.571-4.3,2.161-6.756,2.357a8.238,8.238,0,0,0-5.937,3.535" transform="translate(-82.021 -140.153)"/><path class="t" d="M179.6,231.274a11.287,11.287,0,0,1,6.346-.2,9.449,9.449,0,0,1,4.913,3.143" transform="translate(-69.665 -139.56)"/><path class="s" d="M159.3,239.475a39.877,39.877,0,0,1,4.3,8.053c1.024,3.535,4.708-1.571,1.433-9.428Z" transform="translate(-90.922 -132.44)"/><g transform="translate(202.256 0)"><g transform="translate(0 0.099)"><path class="q" d="M253.773,190.531a60.6,60.6,0,0,0-28.66,27.695,3.972,3.972,0,0,0-.166,3.157,4.192,4.192,0,0,0,2.213,2.342l14.74,6.482a4.379,4.379,0,0,0,5.527-1.964c8.466-16.842,28.924-24.707,47.169-18.133s28.251,25.414,23.071,43.44-23.835,29.285-43.013,25.958c-8.68-1.39-17.031,3.809-19.243,11.981l-1.638,6.089L246.2,325.665a4.115,4.115,0,0,0,3.071,4.91l15.558,3.928a4.316,4.316,0,0,0,5.118-2.946l7.574-27.891c26.087,1.536,50.394-12.731,60.849-35.713s4.829-49.783-14.082-67.092-47.08-21.435-70.513-10.331Z" transform="translate(-224.697 -184.356)"/><path class="p" d="M233,282.6a11.536,11.536,0,0,1,4.726-16.016,12.563,12.563,0,0,1,16.7,4.5,11.533,11.533,0,0,1-4.644,16.038,12.742,12.742,0,0,1-9.374,1.094A12.211,12.211,0,0,1,233,282.6Z" transform="translate(-217.635 -106.527)"/><path class="q" d="M247.468,282.584a10.3,10.3,0,0,0,5.07-6.156,9.849,9.849,0,0,0-.976-7.79l-1.228-1.571a12.729,12.729,0,0,0-11.487-1.077,11.914,11.914,0,0,0-7.347,8.541,10.2,10.2,0,0,0,5.662,8.266,11.039,11.039,0,0,0,10.306-.213Z" transform="translate(-217.573 -106.509)"/></g><path class="p" d="M257.586,304.423l7.575-27.891a63.7,63.7,0,0,0,48-17.714A58.338,58.338,0,0,0,330.874,212.5c-.614,15.124-7.165,31.819-26.613,45.372a63.957,63.957,0,0,1-41.967,11.2A5.306,5.306,0,0,0,256.562,273c-1.842,7.464-5.527,22.2-6.141,25.534s-3.071,7.267-13.921,4.91l15.558,3.928a4.461,4.461,0,0,0,3.437-.311,4.15,4.15,0,0,0,2.091-2.635Z" transform="translate(-212.337 -157.122)"/><path class="r" d="M242.2,201.775c14.535-15.91,42.172-17.285,52.2-16.106-28.158-5.871-56.823,7.636-69.194,32.605a3.972,3.972,0,0,0-.165,3.157,4.192,4.192,0,0,0,2.213,2.342L242,230.256s-7.165-5.107-9.417-7.267S227.669,217.881,242.2,201.775Z" transform="translate(-224.592 -184.306)"/><path class="r" d="M286.47,231.2a38.881,38.881,0,0,1-23.338,3.143c-8.681-1.39-17.031,3.809-19.243,11.981l-1.638,6.089L235.7,276.572c1.842-5.107,6.141-16.7,8.6-23.373s5.527-17.088,18.015-16.106,19.858-2.161,24.157-5.892Z" transform="translate(-213.175 -139.093)"/></g></g><g transform="translate(514.14 82.102)"><g transform="translate(0 0.112)"><path class="q" d="M399.675,45.836a46.279,46.279,0,0,0-22.314,20.624,3.083,3.083,0,0,0,1.433,4.125l11.055,5.3a3.343,3.343,0,0,0,4.3-1.375C401,61.932,416.708,56.423,430.4,61.8s20.872,19.868,16.568,33.449S428.3,117.035,413.8,114.189a12.936,12.936,0,0,0-14.944,8.839l-1.433,4.518-3.48,11.392a3.03,3.03,0,0,0,.267,2.417,3.255,3.255,0,0,0,1.984,1.511l11.873,3.339a3.4,3.4,0,0,0,2.519-.257,3.169,3.169,0,0,0,1.575-1.9l3.48-11.2c19.919,1.717,38.826-8.723,47.285-26.11a44.213,44.213,0,0,0-9.5-51.545,48.991,48.991,0,0,0-53.751-8.964Z" transform="translate(-377.046 -41.892)"/><path class="p" d="M383.27,111.227a8.742,8.742,0,0,1,1.031-10,9.662,9.662,0,0,1,10.031-2.9,9.131,9.131,0,0,1,6.616,7.793,8.957,8.957,0,0,1-4.987,8.84,9.62,9.62,0,0,1-12.692-3.732Z" transform="translate(-371.695 12.137)"/><path class="q" d="M394.274,111.38a7.948,7.948,0,0,0,4.032-4.611,7.57,7.57,0,0,0-.552-6l-.819-1.179a9.754,9.754,0,0,0-8.726-1.029A9.167,9.167,0,0,0,382.4,104.9a7.831,7.831,0,0,0,4.121,6.3,8.494,8.494,0,0,0,7.753.179Z" transform="translate(-371.439 12.181)"/></g><path class="p" d="M402.263,122.628l3.48-11.2A48.5,48.5,0,0,0,442.723,98.9a44.416,44.416,0,0,0,14.4-35c-.614,11.392-6.142,23.963-21.086,34.176a48.82,48.82,0,0,1-32.141,7.857,4.09,4.09,0,0,0-4.5,2.946c-1.638,5.7-1.638,6.875-2.252,9.428s-2.457,5.5-10.645,3.536l11.874,3.339a3.388,3.388,0,0,0,2.51-.485A3.133,3.133,0,0,0,402.263,122.628Z" transform="translate(-367.146 -20.561)"/><path class="r" d="M390.668,54.337c11.464-11.981,32.345-12.374,40.124-11.2-21.356-5.016-43.5,4.751-53.431,23.57a3.083,3.083,0,0,0,1.433,4.125l11.055,5.3a78.337,78.337,0,0,1-6.96-5.7C381.251,68.675,379.2,66.318,390.668,54.337Z" transform="translate(-377.046 -41.835)"/><path class="r" d="M422.444,77.6a29.553,29.553,0,0,1-17.81,1.964A12.936,12.936,0,0,0,389.69,88.4l-1.433,4.518-2.457,8.446c1.638-3.928,2.252-2.75,4.094-7.857s4.5-12.963,14.125-11.981,15.149-1.178,18.629-3.928Z" transform="translate(-367.879 -7.352)"/></g><g transform="translate(11.147)"><g transform="translate(0 0.112)"><path class="q" d="M135.676,4.036a46.279,46.279,0,0,0-22.314,20.624,3.083,3.083,0,0,0,1.433,4.125l11.055,5.3a3.343,3.343,0,0,0,4.3-1.375C137,20.132,152.708,14.623,166.4,20s20.872,19.868,16.568,33.449S164.3,75.235,149.8,72.389a12.936,12.936,0,0,0-14.944,8.839l-1.433,4.518-3.48,11.392a3.029,3.029,0,0,0,.267,2.417,3.255,3.255,0,0,0,1.984,1.511l11.874,3.339a3.4,3.4,0,0,0,2.519-.257,3.169,3.169,0,0,0,1.575-1.9l3.48-11.2c19.919,1.717,38.826-8.723,47.285-26.11a44.213,44.213,0,0,0-9.5-51.545,48.991,48.991,0,0,0-53.751-8.964Z" transform="translate(-113.046 -0.092)"/><path class="p" d="M119.37,69.427a8.742,8.742,0,0,1,1.032-10,9.662,9.662,0,0,1,10.031-2.9,9.131,9.131,0,0,1,6.616,7.793,8.957,8.957,0,0,1-4.987,8.84A9.62,9.62,0,0,1,119.37,69.427Z" transform="translate(-107.59 53.937)"/><path class="q" d="M130.274,69.58a7.948,7.948,0,0,0,4.032-4.611,7.57,7.57,0,0,0-.552-6l-.819-1.178a9.754,9.754,0,0,0-8.726-1.029A9.167,9.167,0,0,0,118.4,63.1a7.831,7.831,0,0,0,4.121,6.3A8.494,8.494,0,0,0,130.274,69.58Z" transform="translate(-107.439 53.981)"/></g><path class="p" d="M138.263,80.925l3.48-11.2a48.494,48.494,0,0,0,37.061-12.6A44.405,44.405,0,0,0,193.127,22c-.614,11.392-6.142,23.963-21.086,34.176A48.82,48.82,0,0,1,139.9,64.033a4.09,4.09,0,0,0-4.5,2.946c-1.638,5.7-1.638,6.875-2.252,9.428s-2.457,5.5-10.645,3.535l11.874,3.339A3.281,3.281,0,0,0,138.263,80.925Z" transform="translate(-103.146 21.142)"/><path class="r" d="M126.668,12.537C138.132.555,159.218.162,166.792,1.341c-21.356-5.016-43.5,4.751-53.431,23.57a3.083,3.083,0,0,0,1.433,4.125l11.055,5.3a78.343,78.343,0,0,1-6.96-5.7C117.251,26.875,115.2,24.518,126.668,12.537Z" transform="translate(-113.046 -0.035)"/><path class="r" d="M158.444,35.8a29.554,29.554,0,0,1-17.81,1.964A12.936,12.936,0,0,0,125.69,46.6l-1.433,4.518L121.8,59.566c1.638-3.928,2.252-2.75,4.094-7.857s4.5-12.963,14.125-11.981,15.149-1.178,18.629-3.928Z" transform="translate(-103.879 34.448)"/></g><g transform="translate(10.297 289.339) rotate(-70)"><g transform="translate(0 0.129)"><path class="q" d="M25.881,4.51A52.927,52.927,0,0,0,.361,28.1,3.526,3.526,0,0,0,2,32.814l12.643,6.065a3.823,3.823,0,0,0,4.917-1.572C27.4,22.918,45.36,16.618,61.021,22.766S84.891,45.487,79.969,61.02,58.612,85.938,42.035,82.682A14.794,14.794,0,0,0,24.944,92.791l-1.639,5.167-3.98,13.029a3.465,3.465,0,0,0,.306,2.764,3.723,3.723,0,0,0,2.27,1.728L35.48,119.3A3.887,3.887,0,0,0,38.361,119a3.625,3.625,0,0,0,1.8-2.178l3.98-12.8c22.781,1.964,44.4-9.976,54.078-29.861a50.565,50.565,0,0,0-10.867-58.95A56.03,56.03,0,0,0,25.881,4.959Z"/><path class="p" d="M1.274,15.208A10,10,0,0,1,2.453,3.768,11.05,11.05,0,0,1,13.925.454a10.443,10.443,0,0,1,7.567,8.912,10.244,10.244,0,0,1-5.7,10.109A11,11,0,0,1,1.274,15.208Z" transform="translate(12.198 125.879)"/><path class="q" d="M13.579,15.33a9.09,9.09,0,0,0,4.611-5.273A8.657,8.657,0,0,0,17.559,3.2l-.937-1.348A11.155,11.155,0,0,0,6.643.675,10.484,10.484,0,0,0,0,7.917a8.956,8.956,0,0,0,4.713,7.209A9.714,9.714,0,0,0,13.579,15.33Z" transform="translate(12.535 125.982)"/></g><path class="p" d="M18.028,67.39l3.98-12.8A55.461,55.461,0,0,0,64.393,40.179,50.784,50.784,0,0,0,80.773,0c-.7,13.029-7.024,27.405-24.115,39.086A55.834,55.834,0,0,1,19.9,48.072a4.678,4.678,0,0,0-5.151,3.369c-1.873,6.514-1.873,7.862-2.575,10.782S9.365,68.513,0,66.267l13.579,3.819A3.752,3.752,0,0,0,18.028,67.39Z" transform="translate(22.135 49.34)"/><path class="r" d="M15.579,14.3C28.69.595,52.805.146,61.468,1.493,37.044-4.243,11.722,6.927.361,28.449A3.526,3.526,0,0,0,2,33.167l12.643,6.065a89.6,89.6,0,0,1-7.96-6.514C4.809,30.7,2.468,28,15.579,14.3Z"/><path class="r" d="M41.909,0A33.8,33.8,0,0,1,21.54,2.246,14.794,14.794,0,0,0,4.448,12.355L2.81,17.521,0,27.181c1.873-4.493,2.575-3.145,4.683-8.985S9.833,3.369,20.837,4.493,38.163,3.145,42.143,0Z" transform="translate(20.496 80.34)"/></g><g transform="translate(179.321 25.596)"><g transform="translate(0.006)"><path class="q" d="M231.314,54.772a93.571,93.571,0,0,0-17.606,61.086,6.875,6.875,0,0,0,7.37,6.089l26.2-1.964a6.773,6.773,0,0,0,6.346-7.071c-1.756-30.185,20.736-56.687,51.9-61.153s60.745,14.575,68.257,43.936-9.517,59.379-39.294,69.267c-13.6,4.484-21.284,18.284-17.606,31.623l2.661,9.821,6.551,24.356a6.993,6.993,0,0,0,8.393,4.714l25.385-6.285a6.657,6.657,0,0,0,4.913-8.053l-6.551-24.159c38.025-17.753,60.483-56.368,56.261-96.739S380.271,26.3,339.328,16.152s-84.141,5.265-108.218,38.62Z" transform="translate(-213.496 -13.067)"/><path class="p" d="M283.342,169.029a18.98,18.98,0,0,1-9.419-19.437,19.586,19.586,0,0,1,15.161-15.745,20.5,20.5,0,0,1,20.94,7.473,18.606,18.606,0,0,1,.751,21.423,20.561,20.561,0,0,1-27.432,6.285Z" transform="translate(-150.473 102.876)"/><path class="q" d="M303.941,157.776a16.119,16.119,0,0,0,2.1-12.631,16.754,16.754,0,0,0-7.832-10.35l-3.071-1.375a20.433,20.433,0,0,0-17.084,7.3,18.632,18.632,0,0,0-3.388,17.646,17.8,17.8,0,0,0,29.274-.589Z" transform="translate(-150.396 102.933)"/></g><path class="p" d="M302.9,199.99l-6.551-24.159c26.336-12.1,45.919-34.553,53.692-61.559A93.546,93.546,0,0,0,336.881,35c11.669,21.8,16.173,50.283-.2,84.459a98.822,98.822,0,0,1-50.156,47.729,8.348,8.348,0,0,0-4.913,10.017,194.873,194.873,0,0,0,6.551,19.642c1.842,5.107,1.638,12.571-15.558,17.481l25.385-6.285a6.657,6.657,0,0,0,4.913-8.053Z" transform="translate(-151.599 8.08)"/><path class="r" d="M224.357,77.464C231.727,43.68,269.8,20.9,284.953,15.2c-44.79,13.048-74.307,53.983-71.241,98.8a6.875,6.875,0,0,0,7.37,6.089l26.2-1.964s-14.33-1.768-19.448-3.143S216.987,111.248,224.357,77.464Z" transform="translate(-213.493 -11.01)"/><path class="r" d="M312.373,79.1a60.572,60.572,0,0,1-30.3,22.2c-13.6,4.484-21.284,18.284-17.606,31.623l2.661,9.821,4.913,18.07c-1.433-8.642.819-7.464-1.433-18.463-2.866-14.338-6.346-28.48,12.283-36.533s26.2-18.07,29.479-26.713Z" transform="translate(-161.074 50.6)"/></g></g></g></svg>