<svg xmlns="http://www.w3.org/2000/svg" width="16" height="16" viewBox="0 0 16 16"><defs><style>.a{fill:#07a3a4;}</style></defs><g transform="translate(-0.001 -0.125)"><path class="a" d="M8,.125A8.058,8.058,0,0,0,1.842,3.034l-.6-.591a.435.435,0,0,0-.478-.112.433.433,0,0,0-.309.375L0,5.8c-.051.381.388.6.534.525l3.092-.441a.444.444,0,0,0,.375-.309.473.473,0,0,0-.112-.487l-.712-.713A6.124,6.124,0,0,1,14.123,8.106v.019c0,.119,0,.238-.011.357a.469.469,0,0,0,.536.493l.944-.138a.469.469,0,0,0,.4-.447c0-.089,0-.177,0-.264A8.023,8.023,0,0,0,8,.125Z" transform="translate(0)"/><path class="a" d="M15.584,228.4l-3.092.441a.444.444,0,0,0-.375.309.473.473,0,0,0,.112.488l.75.75A6.12,6.12,0,0,1,2,226.689c0-.061-.008-.192.013-.442a.469.469,0,0,0-.532-.5l-.944.133a.469.469,0,0,0-.4.443c-.012.261-.006.471-.008.566a7.991,7.991,0,0,0,14.2,4.838l.553.553a.443.443,0,0,0,.478.113.433.433,0,0,0,.309-.375l.45-3.094A.477.477,0,0,0,15.584,228.4Z" transform="translate(-0.121 -218.564)"/></g></svg>