<svg xmlns="http://www.w3.org/2000/svg" width="56" height="56" viewBox="0 0 56 56"><defs><style>.a{fill:#fff;}.b{fill:#09cacb;}</style></defs><g transform="translate(-651 -169)"><circle class="a" cx="28" cy="28" r="28" transform="translate(651 169)"/><g transform="translate(665 137.5)"><g transform="translate(0 48)"><path class="b" d="M28,50.723a11.866,11.866,0,0,1-3.308.916,5.76,5.76,0,0,0,2.525-3.208,11.4,11.4,0,0,1-3.64,1.4,5.727,5.727,0,0,0-9.93,3.968,6.039,6.039,0,0,0,.133,1.323,16.19,16.19,0,0,1-11.832-6.07,5.892,5.892,0,0,0-.786,2.933,5.829,5.829,0,0,0,2.55,4.823A5.622,5.622,0,0,1,1.12,56.1v.064a5.815,5.815,0,0,0,4.6,5.7,5.67,5.67,0,0,1-1.505.191,5.022,5.022,0,0,1-1.087-.1A5.8,5.8,0,0,0,8.491,66a11.454,11.454,0,0,1-7.117,2.475A10.636,10.636,0,0,1,0,68.4,16.033,16.033,0,0,0,8.806,71c10.563,0,16.338-8.846,16.338-16.514,0-.257-.009-.5-.021-.75A11.522,11.522,0,0,0,28,50.723Z" transform="translate(0 -48)"/></g></g></g></svg>