<svg xmlns="http://www.w3.org/2000/svg" width="32" height="26" viewBox="0 0 32 26"><defs><style>.a{fill:#09cacb;}</style></defs><g transform="translate(0 -48)"><g transform="translate(0 48)"><path class="a" d="M32,51.078a13.678,13.678,0,0,1-3.78,1.036,6.523,6.523,0,0,0,2.886-3.626,13.11,13.11,0,0,1-4.16,1.588A6.56,6.56,0,0,0,15.6,54.562a6.755,6.755,0,0,0,.152,1.5A18.569,18.569,0,0,1,2.228,49.2a6.562,6.562,0,0,0,2.016,8.768,6.479,6.479,0,0,1-2.964-.808v.072a6.59,6.59,0,0,0,5.256,6.446,6.548,6.548,0,0,1-1.72.216,5.8,5.8,0,0,1-1.242-.112,6.623,6.623,0,0,0,6.13,4.57,13.182,13.182,0,0,1-8.134,2.8A12.287,12.287,0,0,1,0,71.056,18.469,18.469,0,0,0,10.064,74c12.072,0,18.672-10,18.672-18.668,0-.29-.01-.57-.024-.848A13.087,13.087,0,0,0,32,51.078Z" transform="translate(0 -48)"/></g></g></svg>