<svg xmlns="http://www.w3.org/2000/svg" width="40" height="40" viewBox="0 0 40 40"><defs><style>.a{fill:#242a37;}</style></defs><path class="a" d="M-1432.909-1439.091a10.478,10.478,0,0,1-3.091-7.459,10.486,10.486,0,0,1,3.091-7.461l9.449-9.449,9.449-9.449a10.483,10.483,0,0,1,7.461-3.091,10.481,10.481,0,0,1,7.46,3.091,10.479,10.479,0,0,1,3.09,7.459,10.483,10.483,0,0,1-3.09,7.461l-9.449,9.45-9.45,9.448a10.478,10.478,0,0,1-7.46,3.091A10.475,10.475,0,0,1-1432.909-1439.091Zm20.888-31.829-8.455,8.455,10.942,10.943,8.456-8.456a7.691,7.691,0,0,0,2.265-5.472,7.687,7.687,0,0,0-2.266-5.47,7.684,7.684,0,0,0-5.47-2.266A7.691,7.691,0,0,0-1412.021-1470.92Zm8.071,3.794a3.522,3.522,0,0,0-2.906-1.535,3.494,3.494,0,0,0-2.488,1.031,1.407,1.407,0,0,1-1.989,0,1.407,1.407,0,0,1,0-1.989,6.285,6.285,0,0,1,4.477-1.855,6.334,6.334,0,0,1,5.227,2.758,1.406,1.406,0,0,1-.366,1.956,1.4,1.4,0,0,1-.793.246A1.405,1.405,0,0,1-1403.95-1467.126Z" transform="translate(1436 1476)"/></svg>