<svg xmlns="http://www.w3.org/2000/svg" width="34" height="22" viewBox="0 0 34 22"><defs><style>.a{fill:#ff4b55;}.b{fill:#464655;}.c{fill:#f5f5f5;}.d{fill:#f0c727;}</style></defs><g transform="translate(0 -88.276)"><path class="a" d="M34,95.7H0V88.862a.586.586,0,0,1,.586-.586H33.414a.586.586,0,0,1,.586.586V95.7Z" transform="translate(0 0)"/><path class="b" d="M33.414,319.333H.586A.586.586,0,0,1,0,318.747v-6.838H34v6.838A.586.586,0,0,1,33.414,319.333Z" transform="translate(0 -209.057)"/><rect class="c" width="34" height="7.424" transform="translate(0 95.564)"/><path class="d" d="M231.556,213.637a.426.426,0,0,0-.56-.4l-.518.173-.126-.76a.933.933,0,0,0-.923-.782h-.485l-.507.624h.671l-.188.928-.547-.182a.426.426,0,0,0-.56.4v3.152l.754-.754-.355,1.066h-.4v.624h3.743V217.1h-.4l-.355-1.066.754.754v-3.152Zm-2.183,3.464h-.5l.346-.924.157.2v.723Zm.624,0v-.723l.157-.2.346.924Zm-.312-1.131a2.293,2.293,0,0,1-.926-1.871,1.474,1.474,0,0,0,.926-.624,1.474,1.474,0,0,0,.926.624A2.293,2.293,0,0,1,229.685,215.971Z" transform="translate(-212.685 -115.518)"/></g></svg>