<svg xmlns="http://www.w3.org/2000/svg" width="25" height="25" viewBox="0 0 25 25"><defs><style>.a{fill:#fff;}</style></defs><path class="a" d="M5.543,146.628l-.871,3.25-3.182.067A12.527,12.527,0,0,1,1.4,138.268h0l2.833.519L5.473,141.6a7.463,7.463,0,0,0,.07,5.025Z" transform="translate(0 -131.519)"/><path class="a" d="M273.64,208.176a12.5,12.5,0,0,1-4.458,12.088h0l-3.568-.182-.505-3.153a7.453,7.453,0,0,0,3.207-3.806h-6.687v-4.947H273.64Z" transform="translate(-248.859 -198.018)"/><path class="a" d="M49.352,316.552h0a12.51,12.51,0,0,1-18.844-3.826l4.053-3.317a7.438,7.438,0,0,0,10.718,3.808Z" transform="translate(-29.019 -294.306)"/><path class="a" d="M47.713,2.879,43.662,6.2A7.437,7.437,0,0,0,32.7,10.09L28.625,6.754h0A12.508,12.508,0,0,1,47.713,2.879Z" transform="translate(-27.226)"/></svg>