<svg xmlns="http://www.w3.org/2000/svg" xmlns:xlink="http://www.w3.org/1999/xlink" width="663" height="768" viewBox="0 0 663 768"><defs><style>.a{fill:url(#a);}.b{fill:#fff;}.c{fill:url(#b);}.d{fill:url(#c);}.e{fill:#ec671c;}.f{fill:#f3e600;}.g{fill:url(#d);}.h{fill:url(#e);}.i{fill:url(#f);}.j{fill:url(#g);}.k{fill:url(#h);}.l{fill:url(#i);}.m{fill:#242a37;opacity:0.31;}.n{fill:url(#j);}.o{fill:url(#k);}.p{fill:url(#l);}.q{fill:url(#m);}.r{fill:url(#n);}.s{fill:url(#o);}.t{fill:url(#p);}.u{fill:url(#q);}.v{fill:url(#r);}.w{fill:url(#s);}.x{fill:url(#t);}.y{fill:url(#u);}.z{fill:url(#v);}.aa{fill:url(#w);}.ab{fill:url(#x);}.ac{fill:url(#y);}.ad{fill:url(#z);}.ae{fill:url(#aa);}.af{fill:url(#ab);}.ag{fill:url(#ac);}.ah{fill:none;stroke:#bbbaba;stroke-linecap:round;stroke-linejoin:round;stroke-width:1.01px;}.ai{fill:url(#ad);}.aj{fill:#49484b;opacity:0.4;}.ak{fill:url(#ae);}.al{fill:url(#af);}.am{fill:url(#ag);}.an{fill:url(#ah);}.ao{fill:url(#ai);}.ap{fill:url(#aj);}.aq{fill:url(#ak);}.ar{fill:url(#al);}.as{fill:url(#am);}.at{fill:url(#an);}.au{fill:url(#ao);}.av{fill:url(#ap);}.aw{fill:url(#aq);}.ax{fill:url(#ar);}</style><linearGradient id="a" x1="-0.077" y1="0.811" x2="0.886" y2="0.328" gradientUnits="objectBoundingBox"><stop offset="0" stop-color="#06f"/><stop offset="1" stop-color="#ed1a3f"/></linearGradient><linearGradient id="b" x1="0.32" y1="0.241" x2="0.921" y2="0.885" gradientUnits="objectBoundingBox"><stop offset="0.15" stop-color="#231e25"/><stop offset="1" stop-color="#343336"/></linearGradient><linearGradient id="c" x1="0.042" y1="0.236" x2="0.853" y2="0.695" gradientUnits="objectBoundingBox"><stop offset="0.15" stop-color="#02064f"/><stop offset="1" stop-color="#0b137d"/></linearGradient><linearGradient id="d" x1="13.786" y1="-2.436" x2="15.48" y2="-2.436" gradientUnits="objectBoundingBox"><stop offset="0" stop-color="#f2a0c5"/><stop offset="1" stop-color="#f2a0c5" stop-opacity="0"/></linearGradient><linearGradient id="e" x1="0.631" y1="0.502" x2="0.05" y2="0.692" gradientUnits="objectBoundingBox"><stop offset="0.15" stop-color="#231e25"/><stop offset="1" stop-color="#49484b"/></linearGradient><linearGradient id="f" y1="0.499" x2="1.001" y2="0.499" gradientUnits="objectBoundingBox"><stop offset="0.04" stop-color="#eb006d"/><stop offset="1" stop-color="#ff68ab"/></linearGradient><linearGradient id="g" x1="0.001" y1="0.5" x2="1" y2="0.5" xlink:href="#f"/><linearGradient id="h" x1="-0.443" y1="1.104" x2="0.567" y2="0.452" gradientUnits="objectBoundingBox"><stop offset="0.37" stop-color="#cdcfd1"/><stop offset="0.59" stop-color="#e4e5e6"/><stop offset="0.83" stop-color="#f8f8f8"/><stop offset="1" stop-color="#fff"/></linearGradient><linearGradient id="i" y1="0.5" x2="1" y2="0.5" gradientUnits="objectBoundingBox"><stop offset="0" stop-color="#f24194"/><stop offset="0.04" stop-color="#eb006d"/><stop offset="1" stop-color="#f24194"/></linearGradient><linearGradient id="j" x1="0" y1="0.501" x2="1.001" y2="0.501" xlink:href="#f"/><linearGradient id="k" x1="-0.001" y1="0.501" x2="1.002" y2="0.501" gradientUnits="objectBoundingBox"><stop offset="0" stop-color="#ff68ab"/><stop offset="0.96" stop-color="#eb006d"/></linearGradient><linearGradient id="l" x1="0.002" y1="0.501" x2="0.999" y2="0.501" gradientUnits="objectBoundingBox"><stop offset="0" stop-color="#49484b"/><stop offset="0.85" stop-color="#231e25"/></linearGradient><linearGradient id="m" x1="0" y1="0.5" x2="1" y2="0.5" xlink:href="#f"/><linearGradient id="n" x1="-0.002" y1="0.5" x2="0.998" y2="0.5" xlink:href="#f"/><linearGradient id="o" x1="0.083" y1="0.919" x2="0.926" y2="0.266" gradientUnits="objectBoundingBox"><stop offset="0.06" stop-color="#dbdddf"/><stop offset="1" stop-color="#dbdddf" stop-opacity="0"/></linearGradient><linearGradient id="p" x1="-0.028" y1="0.891" x2="1.024" y2="0.425" xlink:href="#o"/><linearGradient id="q" x1="0.193" y1="0.218" x2="0.926" y2="1.078" xlink:href="#b"/><linearGradient id="r" x1="0.46" y1="0.191" x2="0.438" y2="1.129" xlink:href="#c"/><linearGradient id="s" y1="0.5" x2="1" y2="0.5" gradientUnits="objectBoundingBox"><stop offset="0.15" stop-color="#09004d"/><stop offset="1" stop-color="#040730"/></linearGradient><linearGradient id="t" x1="0.734" y1="0.816" x2="0.734" y2="1.331" gradientUnits="objectBoundingBox"><stop offset="0.23" stop-color="#abdcf4"/><stop offset="0.75" stop-color="#dbeffb"/></linearGradient><linearGradient id="u" x1="2.696" y1="3.493" x2="0.953" y2="4.333" gradientUnits="objectBoundingBox"><stop offset="0.22" stop-color="#ffd6d6"/><stop offset="1" stop-color="#ffaca8"/></linearGradient><linearGradient id="v" x1="5.141" y1="15.252" x2="3.869" y2="16.053" xlink:href="#u"/><linearGradient id="w" x1="5.072" y1="15.295" x2="3.801" y2="16.097" xlink:href="#u"/><linearGradient id="x" x1="5.004" y1="15.355" x2="3.732" y2="16.156" xlink:href="#u"/><linearGradient id="y" x1="5.256" y1="16.213" x2="3.91" y2="17.062" xlink:href="#u"/><linearGradient id="z" x1="2.517" y1="5.307" x2="1.321" y2="5.749" xlink:href="#u"/><linearGradient id="aa" x1="0.268" y1="1.939" x2="1.342" y2="1.939" xlink:href="#c"/><linearGradient id="ab" x1="1.24" y1="2.39" x2="0.995" y2="1.425" xlink:href="#c"/><linearGradient id="ac" x1="0.727" y1="1.811" x2="0.554" y2="0.988" xlink:href="#c"/><linearGradient id="ad" x1="0.11" y1="1.158" x2="1.079" y2="-0.514" xlink:href="#e"/><linearGradient id="ae" x1="0.261" y1="1.516" x2="0.598" y2="0.019" xlink:href="#e"/><linearGradient id="af" x1="-0.349" y1="1.617" x2="0.893" y2="-0.001" xlink:href="#e"/><linearGradient id="ag" x1="0.175" y1="1.014" x2="1.358" y2="-0.743" xlink:href="#e"/><linearGradient id="ah" x1="0.623" y1="0.311" x2="-0.22" y2="1.627" xlink:href="#e"/><linearGradient id="ai" x1="0.002" y1="1.148" x2="0.903" y2="0.132" xlink:href="#u"/><linearGradient id="aj" x1="1.122" y1="-0.072" x2="-0.384" y2="1.202" xlink:href="#c"/><linearGradient id="ak" x1="3.076" y1="9.539" x2="2.176" y2="8.228" xlink:href="#t"/><linearGradient id="al" x1="0.659" y1="0.863" x2="0.377" y2="0.02" xlink:href="#u"/><linearGradient id="am" x1="1.163" y1="0.798" x2="-0.056" y2="-0.113" xlink:href="#u"/><linearGradient id="an" x1="0.64" y1="-0.203" x2="0.33" y2="0.679" gradientUnits="objectBoundingBox"><stop offset="0.07" stop-color="#7a3923"/><stop offset="1" stop-color="#3e190c"/></linearGradient><linearGradient id="ao" x1="2.539" y1="8.248" x2="2.714" y2="9.404" xlink:href="#c"/><linearGradient id="ap" x1="2.727" y1="5.366" x2="2.727" y2="5.909" xlink:href="#t"/><linearGradient id="aq" x1="1.03" y1="0.061" x2="0.09" y2="0.737" xlink:href="#c"/><linearGradient id="ar" x1="0.74" y1="3.946" x2="1.777" y2="6.046" xlink:href="#t"/></defs><g transform="translate(192.611 198.25)"><g transform="translate(-192.611 -198.25)"><path class="a" d="M0,768H660.035c.688-4.261,1.377-8.522,1.893-12.784,6.54-60.433-17.555-121.06-52.837-167.352S528.2,507.287,483.28,473.2c-21-15.883-42.167-32.347-58.173-54.235s-26.5-50.748-22.374-78.834c4.991-34.09,30.291-69.343,14.629-99.172-25.988-49.973-128.221-26.149-81.063-118.735,9.81-19.369,23.751-35.834,32.528-55.978A122.091,122.091,0,0,0,376.745,0H0Z" transform="translate(0 0)"/><g transform="translate(34.68 6.169)"><path class="b" d="M121.076,210.671a1.369,1.369,0,1,0-.9-1.285A1.371,1.371,0,0,0,121.076,210.671Z" transform="translate(51.979 142.361)"/><path class="b" d="M170.976,290.771a1.369,1.369,0,1,0-.9-1.285A1.371,1.371,0,0,0,170.976,290.771Z" transform="translate(87.961 199.532)"/><path class="b" d="M57.482,209.541a2.571,2.571,0,1,0-2.582-2.571A2.576,2.576,0,0,0,57.482,209.541Z" transform="translate(4.908 139.72)"/><path class="b" d="M95.076,97.771a1.369,1.369,0,1,0-.9-1.285,1.371,1.371,0,0,0,.9,1.285Z" transform="translate(33.23 61.779)"/><path class="b" d="M293.076,337.171a1.369,1.369,0,1,0-.9-1.285,1.371,1.371,0,0,0,.9,1.285Z" transform="translate(176.005 232.65)"/><path class="b" d="M296.576,283.071a1.369,1.369,0,1,0-.9-1.285,1.371,1.371,0,0,0,.9,1.285Z" transform="translate(178.528 194.036)"/><path class="b" d="M159.076,364.471a1.369,1.369,0,1,0-.9-1.285A1.371,1.371,0,0,0,159.076,364.471Z" transform="translate(79.38 252.135)"/><path class="b" d="M93.876,353.371a1.369,1.369,0,0,0,0-2.571,1.369,1.369,0,0,0,0,2.571Z" transform="translate(32.365 244.213)"/><path class="b" d="M22.473,303.827a2.314,2.314,0,1,0-2.323-2.314A2.319,2.319,0,0,0,22.473,303.827Z" transform="translate(-20.15 207.383)"/><path class="b" d="M42.676,343.571a1.369,1.369,0,0,0,0-2.571,1.369,1.369,0,0,0,0,2.571Z" transform="translate(-4.554 237.218)"/><path class="b" d="M213.076,335.071a1.369,1.369,0,1,0-.9-1.285A1.371,1.371,0,0,0,213.076,335.071Z" transform="translate(118.318 231.151)"/><path class="b" d="M191.873,43.027a2.314,2.314,0,1,0-2.323-2.314,2.319,2.319,0,0,0,2.323,2.314Z" transform="translate(102.001 21.238)"/><path class="b" d="M75.076,6.171a1.369,1.369,0,0,0,0-2.571,1.369,1.369,0,0,0,0,2.571Z" transform="translate(18.809 -3.6)"/><path class="b" d="M35.876,42.371a1.369,1.369,0,0,0,0-2.571,1.369,1.369,0,0,0,0,2.571Z" transform="translate(-9.458 22.238)"/><path class="b" d="M246.876,361.871a1.369,1.369,0,1,0-.9-1.285,1.371,1.371,0,0,0,.9,1.285Z" transform="translate(142.691 250.279)"/><path class="b" d="M255.874,317.727a2.314,2.314,0,1,0-2.324-2.314,2.319,2.319,0,0,0,2.324,2.314Z" transform="translate(148.15 217.304)"/><path class="b" d="M110.476,391.271a1.369,1.369,0,1,0-.9-1.285A1.371,1.371,0,0,0,110.476,391.271Z" transform="translate(44.335 271.264)"/><path class="b" d="M115.876,168.771a1.369,1.369,0,1,0-.9-1.285,1.371,1.371,0,0,0,.9,1.285Z" transform="translate(48.229 112.455)"/><path class="b" d="M145.976,126.771a1.369,1.369,0,1,0-.9-1.285,1.371,1.371,0,0,0,.9,1.285Z" transform="translate(69.934 82.478)"/><path class="b" d="M215.276,238.371a1.369,1.369,0,1,0-.9-1.285A1.371,1.371,0,0,0,215.276,238.371Z" transform="translate(119.904 162.132)"/><path class="b" d="M307.776,378.071a1.369,1.369,0,1,0-.9-1.285,1.371,1.371,0,0,0,.9,1.285Z" transform="translate(186.605 261.842)"/><path class="b" d="M348.676,364.471a1.369,1.369,0,1,0-.9-1.285,1.371,1.371,0,0,0,.9,1.285Z" transform="translate(216.097 252.135)"/><path class="b" d="M232.276,157.371a1.369,1.369,0,1,0-.9-1.285A1.371,1.371,0,0,0,232.276,157.371Z" transform="translate(132.163 104.318)"/><path class="b" d="M40.176,115.771a1.369,1.369,0,0,0,0-2.571,1.369,1.369,0,0,0,0,2.571Z" transform="translate(-6.357 74.627)"/><g transform="translate(0.086 0.306)"><path class="b" d="M122.582,209.172a1.379,1.379,0,1,0-1.291.894A1.377,1.377,0,0,0,122.582,209.172Z" transform="translate(51.764 142.183)"/><path class="b" d="M172.382,289.272a1.379,1.379,0,1,0-1.291.894,1.377,1.377,0,0,0,1.291-.894Z" transform="translate(87.674 199.354)"/><path class="b" d="M60.063,206.871a2.582,2.582,0,1,0-2.582,2.571,2.576,2.576,0,0,0,2.582-2.571Z" transform="translate(4.822 139.343)"/><path class="b" d="M96.582,96.272a1.379,1.379,0,0,0-2.582,0,1.379,1.379,0,0,0,2.582,0Z" transform="translate(33.016 61.601)"/><path class="b" d="M294.582,335.772a1.379,1.379,0,1,0-1.291.894,1.377,1.377,0,0,0,1.291-.894Z" transform="translate(175.79 232.543)"/><path class="b" d="M298.082,281.672a1.379,1.379,0,1,0-1.291.894,1.377,1.377,0,0,0,1.291-.894Z" transform="translate(178.314 193.929)"/><path class="b" d="M160.582,362.972a1.379,1.379,0,1,0-1.291.894A1.377,1.377,0,0,0,160.582,362.972Z" transform="translate(79.165 251.957)"/><path class="b" d="M95.382,351.972a1.379,1.379,0,1,0-1.291.894A1.377,1.377,0,0,0,95.382,351.972Z" transform="translate(32.15 244.106)"/><path class="b" d="M24.847,301.564a2.323,2.323,0,1,0-2.323,2.314,2.319,2.319,0,0,0,2.323-2.314Z" transform="translate(-20.2 207.113)"/><path class="b" d="M44.182,342.172a1.379,1.379,0,1,0-1.291.894,1.377,1.377,0,0,0,1.291-.894Z" transform="translate(-4.769 237.111)"/><path class="b" d="M214.582,333.572a1.379,1.379,0,1,0-1.291.894,1.377,1.377,0,0,0,1.291-.894Z" transform="translate(118.103 230.973)"/><path class="b" d="M159.5,62.8c0-4.8-7.4-4.8-7.4,0S159.5,67.6,159.5,62.8Z" transform="translate(74.911 35.779)"/><path class="b" d="M334.1,311.8c0-4.8-7.4-4.8-7.4,0S334.1,316.6,334.1,311.8Z" transform="translate(200.811 213.501)"/><path class="b" d="M76.582,4.672a1.379,1.379,0,0,0-2.582,0,1.379,1.379,0,0,0,2.582,0Z" transform="translate(18.594 -3.778)"/><path class="b" d="M37.382,40.872a1.379,1.379,0,0,0-2.582,0,1.379,1.379,0,0,0,2.582,0Z" transform="translate(-9.672 22.059)"/><path class="b" d="M248.282,360.472a1.379,1.379,0,1,0-1.291.894A1.377,1.377,0,0,0,248.282,360.472Z" transform="translate(142.404 250.172)"/><path class="b" d="M258.147,315.464a2.323,2.323,0,1,0-2.323,2.314A2.318,2.318,0,0,0,258.147,315.464Z" transform="translate(148.028 217.034)"/><path class="b" d="M111.982,389.872a1.379,1.379,0,1,0-1.291.894,1.377,1.377,0,0,0,1.291-.894Z" transform="translate(44.12 271.157)"/><path class="b" d="M117.282,167.272a1.379,1.379,0,1,0-1.291.894,1.377,1.377,0,0,0,1.291-.894Z" transform="translate(47.942 112.277)"/><path class="b" d="M147.382,125.272a1.379,1.379,0,1,0-1.291.894A1.377,1.377,0,0,0,147.382,125.272Z" transform="translate(69.647 82.299)"/><path class="b" d="M216.682,236.872a1.379,1.379,0,1,0-1.291.894A1.377,1.377,0,0,0,216.682,236.872Z" transform="translate(119.618 161.953)"/><path class="b" d="M309.282,376.672a1.379,1.379,0,1,0-1.291.894,1.377,1.377,0,0,0,1.291-.894Z" transform="translate(186.39 261.735)"/><path class="b" d="M350.182,362.972a1.379,1.379,0,1,0-1.291.894A1.377,1.377,0,0,0,350.182,362.972Z" transform="translate(215.882 251.957)"/><path class="b" d="M233.782,155.972a1.379,1.379,0,1,0-1.291.894A1.377,1.377,0,0,0,233.782,155.972Z" transform="translate(131.948 104.211)"/><path class="b" d="M41.682,114.372a1.379,1.379,0,1,0-1.291.894,1.377,1.377,0,0,0,1.291-.894Z" transform="translate(-6.572 74.52)"/><path class="b" d="M203.882,10.272a1.379,1.379,0,0,0-2.582,0,1.379,1.379,0,0,0,2.582,0Z" transform="translate(110.388 0.219)"/></g><path class="b" d="M202.476,11.671a1.369,1.369,0,1,0-.9-1.285,1.371,1.371,0,0,0,.9,1.285Z" transform="translate(110.675 0.326)"/></g><g transform="translate(0 108.759)"><g transform="translate(309.077 228.151)"><path class="c" d="M247.552,322.375c1.549,4.97,8.95,15.424,12.736,16.795s46.3-20.565,49.051-33.761c1.377-7.2-29.775-4.627-42.683-3.085C259.427,303.181,246,317.576,247.552,322.375Z" transform="translate(-130.661 -122.368)"/><path class="d" d="M203.88,196.605c-.344-.343,5.68,6.512,28.226,20.736,19.62,12.339,53.87,31.876,59.377,39.93S323.667,372.778,327.8,379.29c0,0-13.252,17.48-32.184,17.309,0,0-28.57-94.6-35.8-107.966s-65.4-32.39-70.909-38.388S164.639,201.4,203.88,196.605Z" transform="translate(-179.583 -196.593)"/></g><g transform="translate(0 220.585)"><g transform="translate(0 177.41)"><g transform="translate(139.67 2.742)"><path class="e" d="M116.688,297.3a41.676,41.676,0,0,0-19.62,12.168L81.75,326.434a2.4,2.4,0,0,0,1.377,3.942l22.546,4.113a41.815,41.815,0,0,0,23.063-2.4Z" transform="translate(-81.153 -297.3)"/><path class="f" d="M115.2,300.1a36.511,36.511,0,0,0-17.555,10.8L85.6,324.264l17.727,3.085a36.632,36.632,0,0,0,20.481-2.228Z" transform="translate(-77.946 -295.301)"/></g><path class="g" d="M0,386.014,188.114,335.8l-13.769-40.1L0,368.191Z" transform="translate(0 -295.7)"/></g><g transform="translate(137.514)"><path class="h" d="M148.07,271.7l-47.33,22.964s-2.41,15.766,5.68,39.073,19.62,34.275,19.62,34.275l51.46-10.625Z" transform="translate(-65.114 -135.419)"/><path class="i" d="M85.063,269.589l52.321,4.8,20.825,21.765,64.541-31.019-31.5-31.533L79.9,254.679Z" transform="translate(-79.9 -162.613)"/><path class="j" d="M119.6,405.387l35.8-38.217,1.033-29.991,68.843-19.88-2.41,44.557-97.069,58.1Z" transform="translate(-51.273 -102.873)"/><path class="k" d="M581.683,232.66h0A188.771,188.771,0,0,0,382.21,211.238L116.647,320.747A8.223,8.223,0,0,0,112,328.116a176.511,176.511,0,0,0,8.778,54.5,176.978,176.978,0,0,0,26.677,48.328,8.279,8.279,0,0,0,8.261,3.085L437.284,371.3A187.754,187.754,0,0,0,581.683,232.66Z" transform="translate(-56.753 -192.178)"/><path class="l" d="M347.947,357.721a187.5,187.5,0,0,0,103.437-125.1h0A188.731,188.731,0,0,0,292.7,196.971h0a321.455,321.455,0,0,0,55.247,160.75Z" transform="translate(73.546 -192.135)"/><path class="m" d="M305.68,193.5c-4.3.686-8.778,1.371-13.08,2.4h0a321.454,321.454,0,0,0,55.247,160.749c3.958-1.885,7.917-3.942,11.7-6A321.449,321.449,0,0,1,305.68,193.5Z" transform="translate(73.474 -191.234)"/><path class="n" d="M34.416,0a34.571,34.571,0,0,1,.107,69.141A34.571,34.571,0,0,1,34.416,0Z" transform="translate(286.26 124.239) rotate(-66.7)"/><ellipse class="o" cx="25.837" cy="25.742" rx="25.837" ry="25.742" transform="translate(299.768 88.646) rotate(-15.4)"/><path class="p" d="M289.6,285.276a22.914,22.914,0,1,0-17.506-1.105A22.77,22.77,0,0,0,289.6,285.276Z" transform="translate(49.453 -157.393)"/><path class="b" d="M276.628,268.809c2.065,3.428,8.433.343,10.671-6.341s-.344-10.968-3.1-10.968-3.1,4.456-4.819,9.083S274.907,266.067,276.628,268.809Z" transform="translate(61.564 -149.837)"/><path class="b" d="M276.954,259.976a2.589,2.589,0,0,1-2.8-.679,2.58,2.58,0,1,1,2.8.679Z" transform="translate(59.689 -147.345)"/><path class="q" d="M101.586,334.027,97.8,322.716,199.688,283.3l6.712,19.537Z" transform="translate(-66.993 -127.14)"/><path class="r" d="M267.051,373.851l29.258-6.512A540.827,540.827,0,0,1,245.365,217.9L218,229.211a540.816,540.816,0,0,0,49.051,144.64Z" transform="translate(19.681 -173.819)"/><g transform="translate(55.247 0.012)"><path class="s" d="M114.754,335.994,389.094,229.57c56.107-25.192,118.583-29.476,168.838-12.853a188.824,188.824,0,0,0-175.722-5.484L116.647,320.742A8.223,8.223,0,0,0,112,328.111c0,2.4,0,5.655.344,9.426A10.5,10.5,0,0,1,114.754,335.994Z" transform="translate(-112 -192.185)"/><path class="t" d="M560.187,231.6c-29.431,43.7-81.407,78.49-141.3,92.885l-286.56,70.606H129.4l5.507,7.54a8.279,8.279,0,0,0,8.261,3.085l281.569-62.552A187.923,187.923,0,0,0,560.187,231.6Z" transform="translate(-99.453 -164.053)"/></g></g></g><g transform="translate(274.789 220.681)"><path class="u" d="M209.5,341.63c.344,5.141,4.819,17.137,8.089,19.365s50.084-8.74,55.763-20.908c3.1-6.512-27.709-11.653-40.618-13.367C225.851,325.863,209.328,336.489,209.5,341.63Z" transform="translate(-123.723 -96.28)"/><path class="v" d="M169.194,201.944s-17.9,31.876-4.647,66.322c6.884,17.994,58,53.64,60.926,61.866,7.056,20.051,14.973,89.115,16.867,107.966,0,0,24.611-2.057,30.463-15.081,0,0-7.917-98.369-11.359-111.393s-48.534-55.868-54.558-72.834c-2.065-6,.688-38.388.688-38.388S207.575,181.036,169.194,201.944Z" transform="translate(-159.661 -192.234)"/></g><g transform="translate(24.801)"><path class="w" d="M235.3,234.021s-24.612-39.93-68.5-39.588c0,0,14.973-59.124,31.668-60.324S233.062,178.838,235.3,234.021Z" transform="translate(95.475 -13.055)"/><path class="x" d="M157.377,143c-10.326,16.795-11.7,22.279-11.015,24.164s21,97.341,25.3,107.795,55.763,5.141,65.917-17.823c7.917-17.994-13.08-123.561-19.965-126.474S168.392,125.182,157.377,143Z" transform="translate(80.631 -16.98)"/><g transform="translate(299.078)"><path class="y" d="M250.916,98.316c.344-3.942.344-6.512,8.261-13.881s18.932-16.452,22.2-19.708,4.475.514,3.27,3.085c-2.582,5.655-11.875,14.224-11.875,14.224s7.917,8.226,10.843,12.853c1.033,1.714,1.721,4.97-2.754,9.254s-14.285,8.569-21.169,6.684a12,12,0,0,1-8.777-12.51Z" transform="translate(-142.976 -63.463)"/><path class="z" d="M271.33,74.168c-.861-.857-1.893-1.2-5.852,1.2s-7.057,6.341-5.508,7.712,3.958.171,6.884-1.542S274.083,76.91,271.33,74.168Z" transform="translate(-136.712 -56.281)"/><path class="aa" d="M273.13,76.468c-.861-.857-1.893-1.2-5.852,1.2s-7.056,6.341-5.508,7.712,3.958.171,6.884-1.542S275.883,79.21,273.13,76.468Z" transform="translate(-135.414 -54.64)"/><path class="ab" d="M274.93,78.668c-.86-.857-1.893-1.2-5.852,1.2s-7.056,6.341-5.507,7.712,3.958.171,6.884-1.542S277.683,81.41,274.93,78.668Z" transform="translate(-134.116 -53.069)"/><path class="ac" d="M275.848,81.446c-.861-.857-1.721-1.028-5.507,1.2s-6.712,5.827-5.163,7.2,3.614.171,6.54-1.371S278.43,84.016,275.848,81.446Z" transform="translate(-132.97 -51.049)"/><path class="ad" d="M260.826,73.374c1.893-1.542,9.81,7.369,15.49,11.825.516.343-1.2,2.742-4.819,2.571a14.656,14.656,0,0,1-6.884-3.256c6.2,9.6.861,21.25-4.819,19.708a12,12,0,0,1-8.778-12.51C251.188,87.6,252.049,80.572,260.826,73.374Z" transform="translate(-142.903 -56.515)"/><path class="ae" d="M189.417,156.034s49.911-14.4,60.582-22.964c18.244-14.567,32.012-36.16,45.609-49.87,2.926.857,11.875,9.768,13.941,16.281-3.1,3.77-18.416,30.847-40.617,48.842s-63.68,37.7-67.639,34.275C182.532,165.8,189.417,156.034,189.417,156.034Z" transform="translate(-188.183 -49.376)"/></g><path class="af" d="M176.5,128.382s36.143,46.957,47.674,89.972c1.377,6.684,2.926,14.053,4.131,21.765,1.893-50.041-21.341-115.849-30.291-114.307C185.966,127.7,176.844,128.21,176.5,128.382Z" transform="translate(102.47 -18.981)"/><path class="ag" d="M175.167,134.9a100.785,100.785,0,0,1,32.184,44.557c14.629,40.1,14.457,59.3,3.786,122.533-49.051,13.539-48.879-24.164-85.538-23.307,0,0,28.226.857,34.422-47.642,5.335-41.644-5.852-53.126-5.507-67.007C154.686,159.749,161.226,147.924,175.167,134.9Z" transform="translate(65.767 -12.475)"/><g transform="translate(0 140.327)"><g transform="translate(0 101.374)"><g transform="translate(0 6.258)"><line class="ah" y1="12.682" x2="2.237" transform="translate(120.802 31.273)"/><line class="ah" y1="7.712" x2="10.326" transform="translate(89.135 17.049)"/><path class="ai" d="M6.49.224,125.622,0a6.325,6.325,0,0,1,6.348,6.336l-.119,62.282L0,68.866.117,6.584A6.384,6.384,0,0,1,6.49.224Z" transform="translate(112.525 148.762) rotate(-148.5)"/><path class="aj" d="M0,0,14.755.028l.251,131.939L.251,131.939Z" transform="translate(27.843 33.871) rotate(-58.5)"/><path class="ak" d="M14.491.2,123.137,0a14.7,14.7,0,0,1,14.756,14.727l-.023,12.182a4.486,4.486,0,0,1-4.478,4.469L4.461,31.621A4.445,4.445,0,0,1,0,27.169L.023,14.987A14.838,14.838,0,0,1,14.835.2Z" transform="translate(146.276 99.008) rotate(-148.5)"/><path class="al" d="M86.465,232.91l18.416,11.139a3.248,3.248,0,0,1,1.033,4.627l-.344.514L84.4,236.338a2.051,2.051,0,0,1-.688-2.742h0A2.07,2.07,0,0,1,86.465,232.91Z" transform="translate(35.37 -190.669)"/><path class="am" d="M76.707,226.474,58.291,215.334a3.278,3.278,0,0,0-4.647,1.028l-.344.514L74.469,229.73a2.07,2.07,0,0,0,2.754-.686h0A2.051,2.051,0,0,0,76.707,226.474Z" transform="translate(13.633 -203.426)"/><path class="an" d="M70.418,219.012v.685a3.422,3.422,0,0,0,1.549,3.427l1.033.343a36.857,36.857,0,0,1,21.169,12.853l.861.685a3.454,3.454,0,0,0,3.786-.171l.516-.514a3.254,3.254,0,0,0,1.377-2.228,3.417,3.417,0,0,0-.688-2.571,44.261,44.261,0,0,0-25.472-15.6,3.454,3.454,0,0,0-2.582.514A3.254,3.254,0,0,0,70.418,219.012Z" transform="translate(25.945 -202.648)"/></g><path class="ao" d="M104.829,217.01,93.642,204.5a43.527,43.527,0,0,1-4.991,7.2c-1.549,1.714-5.507,2.571-7.573,4.8s-8.605,11.482-8.778,14.91,13.08,14.224,16.178,12.339a51.746,51.746,0,0,0,5.68-8.226l2.754,2.742c3.959-6,3.442-13.367,3.959-14.738Z" transform="translate(27.332 -204.5)"/></g><path class="ap" d="M194.636,145.438c-7.573,2.228-64.368,28.962-72.8,39.073-10.843,13.024-26.333,39.93-41.134,64.78,1.721,7.712,18.76,16.966,24.267,11.825,5.852-12.339,34.766-52.612,39.241-58.781S198.25,180.57,201.692,176.8C215.461,162.062,199.455,143.9,194.636,145.438Z" transform="translate(33.39 -145.346)"/></g><g transform="translate(172.091 43.395)"><path class="aq" d="M163.576,126s-8.778,2.913-9.466,7.712,13.6,6.341,13.6,6.341Z" transform="translate(-85.783 -62.223)"/><g transform="translate(55.736)"><path class="ar" d="M163.148,167.051a22.191,22.191,0,0,0,1.2-8.4c-.344-6.512,1.377-12.168-5.163-18.851-9.294-9.426-16.178-27.934-8.089-39.416s26.5-12.853,34.25-9.94,10.671,17.994,13.08,20.736,8.433,6.341,8.605,7.712a10.779,10.779,0,0,1-2.582,5.141c-1.2,1.2,4.131,14.224,4.131,18.166s-4.819,5.484-8.433,6.169-3.1,14.224-2.926,15.766S190.341,175.448,163.148,167.051Z" transform="translate(-146.254 -88.535)"/><path class="as" d="M163.161,119.314c-1.893.343.861,2.571,3.786,3.942,7.056,3.77,19.448,7.883,19.276,13.024.172-4.284.861-9.083,2.926-9.6s7.917-2.571,8.433-5.655c-.861,3.77-11.7,3.77-22.374,1.542C168.841,121.37,165.4,118.971,163.161,119.314Z" transform="translate(-135.425 -67.018)"/><path class="at" d="M164.194,138.167c-6.024-3.942-5.68-9.083-4.131-10.8s6.54-1.371,10.326,1.885c.861.686-.861-2.913-1.033-3.77s.861-9.94-.688-12.168c-3.958-6.512-4.475-12.339,3.958-12.51,11.187-.343,15.834-5.655,18.416-6s-2.237-4.113-4.3-4.8c-7.917-2.742-27.709-1.542-36.143,10.454s-1.549,29.819,7.745,39.416c3.27,3.256,5.68,6.684,6.2,9.768C166.948,145.707,171.423,142.794,164.194,138.167Z" transform="translate(-146.784 -88.785)"/></g><path class="au" d="M184.685,147.124,182.62,134.1l-7.4.514-4.819,5.655,7.229,9.254a13.462,13.462,0,0,1,7.056-2.4Z" transform="translate(-74.02 -56.441)"/><path class="av" d="M173.1,139.643s10.154,3.6,13.769,11.653c0,0-.172-10.454-3.614-17.823,0,0-3.442-5.827-4.475-6.17S177.919,136.558,173.1,139.643Z" transform="translate(-72.073 -61.298)"/><path class="aw" d="M116.121,156.067s14.285-15.938,29.947-15.766,64.024,25.878,71.769,4.8c0,0,1.377-5.484,7.056-2.4,0,0-.861,19.023-19.1,23.136s-51.8-5.655-61.787-2.228a74.5,74.5,0,0,0-16.522,7.712l-13.08-2.4Z" transform="translate(-114.4 -52.017)"/><path class="ax" d="M154.133,130.5c.172,1.714,9.466,9.94,32.7,6.855a65.7,65.7,0,0,0-.516,17.652s-27.193-10.111-31.84-16.966A32.936,32.936,0,0,1,154.133,130.5Z" transform="translate(-85.806 -59.011)"/></g></g></g></g></g></svg>